<svg xmlns="http://www.w3.org/2000/svg" xmlns:xlink="http://www.w3.org/1999/xlink" viewBox="0 0 540.07 760.04"><defs><style>.cls-1,.cls-5{opacity:0.4;}.cls-1,.cls-12,.cls-7,.cls-9{isolation:isolate;}.cls-1{fill:url(#linear-gradient);}.cls-2{fill:#ecf2fa;}.cls-3{fill:#8bbacc;}.cls-4,.cls-7{fill:#274b5b;}.cls-6{fill:#426270;}.cls-7{opacity:0.2;}.cls-12,.cls-8,.cls-9{fill:#fff;}.cls-9{opacity:0.7;}.cls-10{fill:#d3dfed;}.cls-11{fill:#75d9ef;}.cls-12{opacity:0.9;}.cls-13{fill:#2974b7;}.cls-14{fill:#ef7752;}</style><linearGradient id="linear-gradient" x1="0.18" y1="386.14" x2="540.2" y2="386.14" gradientTransform="matrix(1, 0, 0, -1, -0.51, 834.61)" gradientUnits="userSpaceOnUse"><stop offset="0" stop-color="#c3f6ee"/><stop offset="0.38" stop-color="#c6ebfd"/></linearGradient></defs><title>Asset 50</title><g id="Layer_2" data-name="Layer 2"><g id="Layer_1-2" data-name="Layer 1"><g id="Layer_2-2" data-name="Layer 2"><g id="Layer_1-2-2" data-name="Layer 1-2"><path class="cls-1" d="M532.72,485l-102.79-.12q-.19-2.94-.48-5.88l40.32,0a7.35,7.35,0,0,0,0-14.7h0l-42.5,0c-2.07-10.11-5.36-19.56-10.42-27.57a54.37,54.37,0,0,0-40.71-25.12c-15.29-1.65-30.58,2.22-45.6,6.4-20,5.57-43.55,10.58-58.61-7.95-8.91-11-12.45-28.93-9.24-44.57a116.56,116.56,0,0,1,3.14-11.35l52.95.06a7.35,7.35,0,0,0,0-14.7h0l-49.07-.06a41.43,41.43,0,0,0,.55-6.84,37.73,37.73,0,0,0-14-28.71c-7.71-6-16.73-8.18-25.58-9.76-19.81-3.51-40.25-4.57-59.56,2.18-18.27-19.73-44-26.41-66.41-17.13a43.4,43.4,0,0,0-16.67,11.79l43.8,0a7.14,7.14,0,0,1,0,14.27l-51.42-.06c-3.31,10.73-3.29,23.23-3.15,35.05l.05,4,20.67,0A7.35,7.35,0,1,1,98,359l-20.46,0q.05,4,.11,8l48.05.05a7.35,7.35,0,0,1,0,14.7l-47.84-.05c0,1.7,0,3.39.07,5.08.16,11.93.28,24.17-2.84,35.36-9.62,34.42-43.54,42.66-61.9,69.88L90.3,492a7.35,7.35,0,1,1,0,14.7l-84.62-.1q-1,2.67-1.83,5.46l54.55.06a7.35,7.35,0,1,1,0,14.7h0l-57.6-.06a98.74,98.74,0,0,0,5.47,46.85c12.43,32.48,41.36,49,68.59,48.49s53.18-15,77.61-31.22C170.91,578.66,190.23,565,210.76,567c20.94,2,38.85,19.8,57.78,31.94,30.83,19.76,66.77,24.84,100,14.13,14.7-4.74,29.26-12.79,40-27C419,572.17,425,553.84,427.93,534.37l28.14,0a7.14,7.14,0,0,0,.32-14.27h-.31l-26.5,0c.54-6.57.79-13.19.81-19.71v-.86l102.32.12a7.35,7.35,0,1,0,0-14.7Z"/><path class="cls-2" d="M103.39,606.23,24.11,736.9a9,9,0,0,0,6.68,13.66l52.55,6.15,56.45-56.33-34.37-94.16"/><polygon class="cls-3" points="30.13 758.68 78.81 758.74 135.27 702.41 129.67 687.07 72.74 746.15 21.22 746.1 30.13 758.68"/><path class="cls-4" d="M76.28,759.65l-40.5,0A16.89,16.89,0,0,1,21.34,734L99.59,604.7a2.94,2.94,0,0,1,3.53-1.24h0a2.94,2.94,0,0,1,3.77,1.75h0l35,95.93L88.23,754.71A16.78,16.78,0,0,1,76.28,759.65ZM102.72,610.9,26.39,737a11,11,0,0,0,9.41,16.71l40.5,0a10.94,10.94,0,0,0,7.79-3.22l51-50.92Z"/><g class="cls-5"><path class="cls-6" d="M54.08,705.85c2.62-4.24,4.45-7.83,4.67-7.73s-1.31,3.89-4,8.16-5.34,7.36-5.51,7.21S51.48,710.09,54.08,705.85Z"/><ellipse class="cls-6" cx="57.7" cy="708.22" rx="6" ry="0.42" transform="translate(-581.78 398.44) rotate(-59.5)"/><path class="cls-6" d="M55,708.7c3.82,1.55,7,2.57,7,2.8s-3.39-.45-7.27-2-6.75-3.4-6.64-3.6S51.16,707.17,55,708.7Z"/><path class="cls-6" d="M58.58,707.67c3.45,1.62,6.4,2.62,6.33,2.85s-3.16-.43-6.68-2.09-6-3.6-5.89-3.78S55.12,706.07,58.58,707.67Z"/></g><rect class="cls-4" x="20.79" y="702.35" width="128.75" height="1.31" transform="translate(-545.75 381.43) rotate(-56.09)"/><rect class="cls-7" x="19.44" y="701.44" width="128.75" height="1.31" transform="translate(-545.6 379.92) rotate(-56.09)"/><rect class="cls-7" x="22.14" y="703.25" width="128.75" height="1.31" transform="translate(-545.91 382.95) rotate(-56.09)"/><rect class="cls-4" x="27.98" y="702.35" width="128.75" height="1.31" transform="translate(-542.58 387.4) rotate(-56.09)"/><rect class="cls-7" x="26.63" y="701.45" width="128.75" height="1.31" transform="translate(-542.43 385.88) rotate(-56.09)"/><rect class="cls-7" x="29.32" y="703.26" width="128.75" height="1.31" transform="translate(-542.74 388.92) rotate(-56.09)"/><path class="cls-2" d="M359.23,606.52l79.51,131.72a8.37,8.37,0,0,1-6.22,12.64L378.93,757,322.6,700.59l34.59-94.08"/><polygon class="cls-3" points="431.48 759.13 382.79 759.08 326.46 702.63 332.1 687.3 388.89 746.51 440.41 746.57 431.48 759.13"/><path class="cls-4" d="M425.82,760l-40.5,0a16.78,16.78,0,0,1-11.94-5l-53.56-53.69,35.24-95.84a2.94,2.94,0,0,1,3.77-1.74h0a2.94,2.94,0,0,1,3.53,1.25l77.95,129.43A16.89,16.89,0,0,1,425.82,760Zm-99.19-60.19,50.92,51a10.94,10.94,0,0,0,7.78,3.24l40.5,0a11,11,0,0,0,9.45-16.69L359.22,611.19Z"/><rect class="cls-4" x="383.45" y="638.99" width="1.31" height="128.75" transform="translate(-326.33 332.5) rotate(-33.8)"/><rect class="cls-7" x="384.8" y="638.08" width="1.31" height="128.75" transform="translate(-325.6 333.1) rotate(-33.8)"/><rect class="cls-7" x="382.1" y="639.89" width="1.31" height="128.75" transform="translate(-327.06 331.9) rotate(-33.8)"/><rect class="cls-4" x="375.28" y="638.98" width="1.31" height="128.75" transform="translate(-327.7 327.95) rotate(-33.8)"/><rect class="cls-7" x="376.63" y="638.07" width="1.31" height="128.75" transform="translate(-326.97 328.55) rotate(-33.8)"/><rect class="cls-7" x="373.94" y="639.88" width="1.31" height="128.75" transform="translate(-328.43 327.36) rotate(-33.8)"/><path class="cls-8" d="M162.85,735.64l-48.34-.05,8.25-71.94a16.1,16.1,0,0,1,16-14.26h0a16.1,16.1,0,0,1,16,14.3Z"/><path class="cls-3" d="M137,651.86a19.2,19.2,0,0,1,2.84,5.13c2.28,6,1.95,12.65,1.61,19.07l10.16.34a2.11,2.11,0,0,0,1-.13c.67-.33.8-1.2.85-2,.35-5.64.67-11.52-1.51-16.74a9.31,9.31,0,0,0-1.93-3.08,10.53,10.53,0,0,0-5.45-2.46,33.76,33.76,0,0,0-6.86-.66"/><path class="cls-3" d="M129.63,677.65a31.72,31.72,0,0,1,8.91,16.67,1.75,1.75,0,0,0,.5,1.11,1.69,1.69,0,0,0,1,.24l13.63.15c.48,0,2,.66,2.4.46.93-.43.26-1.25.42-2.26a37.81,37.81,0,0,0-.87-15.26,2.31,2.31,0,0,0-.76-1.34,2.4,2.4,0,0,0-1.31-.3l-23.1-.65"/><path class="cls-3" d="M133.26,697.52a23.65,23.65,0,0,1,5.13,18.09c6.12-1.51,12.58,1.28,18.8.28a1.75,1.75,0,0,0,1.23-.58,1.78,1.78,0,0,0,.23-.83c.53-5.11.42-10.35-1.54-15.11-.33-.76,0-2.2-.72-2.66s-3,.15-3.84.15H133.72"/><path class="cls-3" d="M131.28,715.62c3.43,1.33,5.67,4.73,6.8,8.24s1.37,7.22,2.12,10.83a1.75,1.75,0,0,0,.38.9c.47.47,1.25.3,1.89.1a28.92,28.92,0,0,1,8.14-1.23c3.38,0,6.94.52,10-.88a2.26,2.26,0,0,0,1.16-.95,2.62,2.62,0,0,0,0-1.63q-1.14-6.11-2.37-12.21a2.57,2.57,0,0,0-2.67-2.53,97.17,97.17,0,0,0-25.29-1.19"/><rect class="cls-4" x="137.88" y="692.01" width="1.31" height="47.36" transform="translate(-577.31 853.42) rotate(-89.94)"/><rect class="cls-7" x="137.88" y="690.7" width="1.31" height="47.36" transform="translate(-576 852.12) rotate(-89.94)"/><rect class="cls-9" x="137.88" y="693.32" width="1.31" height="47.36" transform="translate(-578.62 854.72) rotate(-89.94)"/><rect class="cls-4" x="138.23" y="675.02" width="1.31" height="42.79" transform="translate(-557.69 834.52) rotate(-89.94)"/><rect class="cls-7" x="138.23" y="673.72" width="1.31" height="42.79" transform="translate(-556.38 833.22) rotate(-89.94)"/><rect class="cls-9" x="138.23" y="676.33" width="1.31" height="42.79" transform="matrix(0, -1, 1, 0, -559, 835.82)"/><path class="cls-4" d="M157.36,738.58l-37.38,0a7.84,7.84,0,0,1-7.78-8.73l7.63-66.49a19,19,0,0,1,37.83,0l7.48,66.51a7.84,7.84,0,0,1-7.8,8.72Zm-18.59-86.25A13.15,13.15,0,0,0,125.69,664l-7.63,66.49a2,2,0,0,0,1.72,2.17H120l37.37,0a2,2,0,0,0,2-2.18L151.87,664a13.15,13.15,0,0,0-13.1-11.69Z"/><path class="cls-8" d="M264.27,122.66l-61.73-.07a9.31,9.31,0,0,1-9.3-9.32h0v-9.52a175,175,0,0,1,26.89-93l.94-1.5a12,12,0,0,1,20.3-.14l.52.8a175,175,0,0,1,28.24,95.52v11.39A5.88,5.88,0,0,1,264.27,122.66Z"/><path class="cls-10" d="M269.1,104.1l0,17.27-76.91-.09,0-16.89c13.15,5.17,27.6,13.21,41.61,11.4,4.57-.6,9.38-1.7,12.7-4.92a18.52,18.52,0,0,0,4.31-7.37c7-20.3-5-48-7.16-69.39a76.18,76.18,0,0,1,.72-19.89A175,175,0,0,1,269.1,104.1Z"/><path class="cls-8" d="M170.28,336.18l-61.73-.07a9.31,9.31,0,0,1-9.3-9.32h0v-9.52a175,175,0,0,1,26.89-93l.94-1.5a12,12,0,0,1,20.3-.14l.52.8a175,175,0,0,1,28.24,95.52V330.3A5.88,5.88,0,0,1,170.28,336.18Z"/><path class="cls-8" d="M358.09,337.69l-61.73-.07a9.31,9.31,0,0,1-9.3-9.32h0v-9.52a175,175,0,0,1,26.89-93l.94-1.5a12,12,0,0,1,20.3-.14l.52.8A175,175,0,0,1,364,320.44v11.39A5.88,5.88,0,0,1,358.09,337.69Z"/><g class="cls-5"><path class="cls-6" d="M387,678.58c-2.64-4.29-4.14-8.09-3.94-8.17s2,3.51,4.65,7.74,5,7.52,4.79,7.66S389.66,682.87,387,678.58Z"/><ellipse class="cls-6" cx="384.12" cy="680.55" rx="0.42" ry="6" transform="translate(-291.4 287.66) rotate(-30.38)"/><path class="cls-6" d="M387.16,681.76c-3.88,1.56-7.22,2.22-7.27,2s3.14-1.24,7-2.78,6.84-3,7-2.8S391,680.21,387.16,681.76Z"/><path class="cls-6" d="M383.6,680.71c-3.53,1.63-6.64,2.28-6.69,2.07s2.88-1.22,6.34-2.83,6.12-3.21,6.26-3S387.13,679.07,383.6,680.71Z"/></g><rect class="cls-3" x="220.1" y="404.94" width="3.72" height="137.69" transform="translate(-252.08 695.21) rotate(-89.94)"/><path class="cls-4" d="M295.5,500.12,151.93,500l0-33.39,143.56.16Zm-137.68-6,131.81.15,0-21.63-131.8-.15Z"/><path class="cls-10" d="M298.93,333.05c-3.83.27-7.7,0-11.53,0l0-17.27a175.22,175.22,0,0,1,6.36-46.54c3.16-11.41,8.91-35.34,18.79-42.27.39,2,.67,4,.88,5.93a67.53,67.53,0,0,1-.67,18Z"/><path class="cls-10" d="M162.32,332.9c3.83.28,7.7,0,11.53,0l0-17.27a175.22,175.22,0,0,0-6.25-46.55c-3.14-11.41-8.83-35.36-18.69-42.32-.39,2-.68,4-.89,5.93a67.53,67.53,0,0,0,.63,18Z"/><polygon class="cls-2" points="288.06 652.62 288.41 337.22 358.73 337.3 358.37 652.9 288.06 652.62"/><polygon class="cls-8" points="349.26 336.7 348.9 652.28 355.76 652.31 356.12 336.71 349.26 336.7"/><polygon class="cls-3" points="291.14 336.64 290.78 652.22 297.84 652.24 298.2 336.65 291.14 336.64"/><rect class="cls-3" x="324.73" y="310.64" width="2.22" height="61.58" transform="translate(-15.96 666.89) rotate(-89.94)"/><path class="cls-11" d="M323.41,573.16h0a19.6,19.6,0,0,1-19.58-19.62L304,424.84a19.6,19.6,0,0,1,19.62-19.58h0a19.6,19.6,0,0,1,19.58,19.62L343,553.58A19.6,19.6,0,0,1,323.41,573.16Z"/><g class="cls-5"><path class="cls-6" d="M314.48,602.5c-2.13-3.45-3.31-6.54-3.11-6.62s1.72,2.78,3.81,6.19,4,6.06,3.79,6.21S316.59,606,314.48,602.5Z"/><ellipse class="cls-6" cx="312.19" cy="604.06" rx="0.42" ry="4.83" transform="translate(-262.6 240.78) rotate(-30.38)"/><path class="cls-6" d="M314.66,605.09c-3.13,1.26-5.83,1.76-5.88,1.54s2.5-1.08,5.57-2.32,5.51-2.39,5.63-2.18S317.8,603.84,314.66,605.09Z"/><path class="cls-6" d="M311.8,604.24c-2.85,1.33-5.37,1.81-5.42,1.6s2.29-1.06,5.07-2.35,4.94-2.55,5.07-2.35S314.66,602.93,311.8,604.24Z"/></g><g class="cls-5"><path class="cls-6" d="M315.72,375.85c-2.13-3.45-3.31-6.54-3.11-6.62s1.72,2.78,3.81,6.19,4,6.06,3.79,6.21S317.83,379.32,315.72,375.85Z"/><ellipse class="cls-6" cx="313.44" cy="377.4" rx="0.42" ry="4.83" transform="translate(-147.81 210.3) rotate(-30.38)"/><path class="cls-6" d="M315.91,378.45c-3.13,1.26-5.83,1.76-5.88,1.54s2.5-1.08,5.57-2.32,5.51-2.39,5.63-2.18S319,377.2,315.91,378.45Z"/><path class="cls-6" d="M313,377.59c-2.85,1.33-5.37,1.81-5.42,1.6s2.29-1.06,5.07-2.35,4.94-2.55,5.07-2.35S315.9,376.28,313,377.59Z"/></g><path class="cls-4" d="M335.58,351.06a1.14,1.14,0,1,1,1.14-1.14A1.14,1.14,0,0,1,335.58,351.06Zm0-1.63a.49.49,0,1,0,.49.49A.49.49,0,0,0,335.58,349.43Z"/><path class="cls-7" d="M335.58,352a2.12,2.12,0,1,1,2.13-2.12h0A2.13,2.13,0,0,1,335.58,352Zm0-2.94a.82.82,0,1,0,.82.82A.82.82,0,0,0,335.58,349.1Z"/><path class="cls-4" d="M326.11,351.05a1.14,1.14,0,1,1,1.14-1.14A1.14,1.14,0,0,1,326.11,351.05Zm0-1.63a.49.49,0,1,0,.49.49A.49.49,0,0,0,326.11,349.42Z"/><path class="cls-7" d="M326.11,352a2.12,2.12,0,1,1,2.13-2.12h0A2.13,2.13,0,0,1,326.11,352Zm0-2.94a.82.82,0,1,0,.82.82A.82.82,0,0,0,326.11,349.09Z"/><path class="cls-4" d="M316.64,351a1.14,1.14,0,1,1,1.14-1.14A1.14,1.14,0,0,1,316.64,351Zm0-1.63a.49.49,0,1,0,.49.49A.49.49,0,0,0,316.64,349.41Z"/><path class="cls-7" d="M316.63,352a2.12,2.12,0,1,1,2.13-2.12h0A2.13,2.13,0,0,1,316.63,352Zm0-2.94a.82.82,0,1,0,.82.82A.82.82,0,0,0,316.64,349.08Z"/><path class="cls-4" d="M334.12,310.23a1.14,1.14,0,1,1,1.14-1.14h0A1.14,1.14,0,0,1,334.12,310.23Zm0-1.63a.49.49,0,1,0,.49.49.49.49,0,0,0-.49-.49Z"/><path class="cls-7" d="M334.12,311.21a2.12,2.12,0,1,1,2.13-2.12h0A2.13,2.13,0,0,1,334.12,311.21Zm0-2.94a.82.82,0,1,0,.82.82A.82.82,0,0,0,334.12,308.27Z"/><path class="cls-4" d="M324.65,310.22a1.14,1.14,0,1,1,1.14-1.14h0A1.14,1.14,0,0,1,324.65,310.22Zm0-1.63a.49.49,0,1,0,.49.49.49.49,0,0,0-.49-.49Z"/><path class="cls-7" d="M324.64,311.2a2.12,2.12,0,1,1,2.13-2.12h0A2.13,2.13,0,0,1,324.64,311.2Zm0-2.94a.82.82,0,1,0,.82.82A.82.82,0,0,0,324.65,308.26Z"/><path class="cls-4" d="M315.17,310.21a1.14,1.14,0,1,1,1.14-1.14h0A1.14,1.14,0,0,1,315.17,310.21Zm0-1.63a.49.49,0,1,0,.49.49.49.49,0,0,0-.49-.49Z"/><path class="cls-7" d="M315.17,311.19a2.12,2.12,0,1,1,2.13-2.12h0A2.13,2.13,0,0,1,315.17,311.19Zm0-2.94a.82.82,0,1,0,.82.82A.82.82,0,0,0,315.18,308.25Z"/><path class="cls-12" d="M339.77,367.59c0-2.32-.09-4.52-.13-6.53s-.07-3.82-.08-5.36c0-3.07.19-5,.76-5.12s1.41,1.71,2.17,4.77a48.24,48.24,0,0,1,1,5.43,63.61,63.61,0,0,1,.22,13.49,48.29,48.29,0,0,1-.8,5.46c-.66,3.08-1.45,4.9-2,4.84s-.82-2-.93-5.1c-.05-1.54-.08-3.35-.1-5.36S339.8,369.91,339.77,367.59Z"/><ellipse class="cls-12" cx="341.6" cy="392.7" rx="4.9" ry="2.08" transform="translate(-68.86 712.75) rotate(-86.93)"/><path class="cls-7" d="M323.57,571.53A17.66,17.66,0,0,1,306,553.87l.14-128.07a17.64,17.64,0,1,1,35.28,0l-.14,128.07A17.66,17.66,0,0,1,323.57,571.53Zm.18-160.4A14.71,14.71,0,0,0,309,425.8l-.14,128.07a14.7,14.7,0,0,0,29.4,0l.14-128.07a14.71,14.71,0,0,0-14.68-14.72Z"/><g class="cls-5"><polygon class="cls-8" points="302.01 433.27 301.98 457.62 341.13 504.24 341.15 479.89 302.01 433.27"/><path class="cls-8" d="M302,469.85l0,40,39.14,46.61v-.3l0-39.73Z"/></g><path class="cls-4" d="M323.38,576.26a22.07,22.07,0,0,1-22-22.07l.14-128.69a22,22,0,1,1,44.1,0v0l-.14,128.69A22.07,22.07,0,0,1,323.38,576.26Zm.19-167.89A17.17,17.17,0,0,0,306.4,425.5l-.14,128.69a17.15,17.15,0,0,0,34.3.08v0l.14-128.69A17.17,17.17,0,0,0,323.57,408.37Z"/><path class="cls-4" d="M323.75,416.7a1.14,1.14,0,1,1,1.14-1.14A1.14,1.14,0,0,1,323.75,416.7Zm0-1.63a.49.49,0,1,0,.49.49A.49.49,0,0,0,323.75,415.07Z"/><path class="cls-7" d="M323.75,417.68a2.12,2.12,0,1,1,2.13-2.12h0A2.13,2.13,0,0,1,323.75,417.68Zm0-2.94a.82.82,0,1,0,.82.82A.82.82,0,0,0,323.75,414.74Z"/><path class="cls-4" d="M323.58,565.65a1.14,1.14,0,1,1,1.14-1.14h0A1.14,1.14,0,0,1,323.58,565.65Zm0-1.63a.49.49,0,1,0,.49.49A.49.49,0,0,0,323.58,564Z"/><path class="cls-7" d="M323.58,566.63a2.12,2.12,0,1,1,2.13-2.12A2.12,2.12,0,0,1,323.58,566.63Zm0-2.94a.82.82,0,1,0,.82.82A.82.82,0,0,0,323.58,563.69Z"/><polygon class="cls-2" points="266.48 653.12 267.07 122.99 196.76 122.91 196.16 653.37 266.48 653.12"/><polygon class="cls-8" points="206.24 121.94 205.64 652.37 198.78 652.39 199.38 121.94 206.24 121.94"/><polygon class="cls-3" points="264.05 122.01 263.45 652.43 258.32 652.46 258.92 122 264.05 122.01"/><path class="cls-11" d="M231.74,190.57h0a19.6,19.6,0,0,1,19.58,19.62l-.14,128.69a19.6,19.6,0,0,1-19.62,19.58h0A19.6,19.6,0,0,1,212,338.84l.14-128.69A19.6,19.6,0,0,1,231.74,190.57Z"/><rect class="cls-4" x="232.56" y="592.33" width="1.31" height="67.94" transform="translate(-393.35 858.8) rotate(-89.94)"/><rect class="cls-7" x="232.56" y="591.02" width="1.31" height="67.94" transform="translate(-392.04 857.5) rotate(-89.94)"/><rect class="cls-9" x="232.56" y="593.64" width="1.31" height="67.94" transform="translate(-394.66 860.11) rotate(-89.94)"/><rect class="cls-4" x="232.55" y="583.18" width="1.31" height="67.94" transform="translate(-384.21 849.67) rotate(-89.94)"/><rect class="cls-7" x="232.56" y="581.88" width="1.31" height="67.94" transform="translate(-382.9 848.36) rotate(-89.94)"/><rect class="cls-9" x="232.55" y="584.49" width="1.31" height="67.94" transform="translate(-385.51 850.97) rotate(-89.94)"/><rect class="cls-4" x="321.4" y="592.43" width="1.31" height="67.94" transform="translate(-304.71 947.75) rotate(-89.94)"/><rect class="cls-7" x="321.4" y="591.12" width="1.31" height="67.94" transform="translate(-303.4 946.45) rotate(-89.94)"/><rect class="cls-9" x="321.4" y="593.74" width="1.31" height="67.94" transform="translate(-306.01 949.05) rotate(-89.94)"/><rect class="cls-4" x="321.4" y="583.28" width="1.31" height="67.94" transform="translate(-295.56 938.61) rotate(-89.94)"/><rect class="cls-7" x="321.4" y="581.98" width="1.31" height="67.94" transform="translate(-294.25 937.31) rotate(-89.94)"/><rect class="cls-9" x="321.4" y="584.59" width="1.31" height="67.94" transform="translate(-296.87 939.91) rotate(-89.94)"/><rect class="cls-4" x="321.89" y="287.19" width="1.31" height="72.19" transform="translate(-1.1 645.47) rotate(-89.94)"/><rect class="cls-7" x="321.89" y="285.88" width="1.31" height="72.19" transform="translate(0.21 644.16) rotate(-89.94)"/><rect class="cls-9" x="321.89" y="288.5" width="1.31" height="72.19" transform="translate(-2.41 646.77) rotate(-89.94)"/><rect class="cls-4" x="321.9" y="281.31" width="1.31" height="72.19" transform="translate(4.79 639.6) rotate(-89.94)"/><rect class="cls-7" x="321.9" y="280" width="1.31" height="72.19" transform="translate(6.1 638.3) rotate(-89.94)"/><rect class="cls-9" x="321.9" y="282.62" width="1.31" height="72.19" transform="translate(3.48 640.9) rotate(-89.94)"/><rect class="cls-4" x="231" y="72.49" width="1.31" height="72.19" transform="translate(122.82 340.12) rotate(-89.94)"/><rect class="cls-7" x="231.01" y="71.18" width="1.31" height="72.19" transform="translate(124.12 338.81) rotate(-89.94)"/><rect class="cls-9" x="231" y="73.79" width="1.31" height="72.19" transform="translate(121.51 341.42) rotate(-89.94)"/><rect class="cls-4" x="231.01" y="66.61" width="1.31" height="72.19" transform="translate(128.7 334.25) rotate(-89.94)"/><rect class="cls-7" x="231.01" y="65.3" width="1.31" height="72.19" transform="translate(130.01 332.95) rotate(-89.94)"/><rect class="cls-9" x="231.01" y="67.92" width="1.31" height="72.19" transform="translate(127.39 335.55) rotate(-89.94)"/><rect class="cls-4" x="137.35" y="286.98" width="1.31" height="72.19" transform="translate(-185.23 460.71) rotate(-89.94)"/><rect class="cls-7" x="137.35" y="285.68" width="1.31" height="72.19" transform="translate(-183.92 459.41) rotate(-89.94)"/><rect class="cls-9" x="137.34" y="288.29" width="1.31" height="72.19" transform="translate(-186.54 462.01) rotate(-89.94)"/><rect class="cls-4" x="137.35" y="281.1" width="1.31" height="72.19" transform="translate(-179.35 454.84) rotate(-89.94)"/><rect class="cls-7" x="137.35" y="279.8" width="1.31" height="72.19" transform="translate(-178.04 453.54) rotate(-89.94)"/><rect class="cls-9" x="137.35" y="282.41" width="1.31" height="72.19" transform="translate(-180.65 456.15) rotate(-89.94)"/><g class="cls-5"><path class="cls-6" d="M239,160.71c2.1-3.4,3.6-6.28,3.83-6.18s-1,3.17-3.12,6.62-4.34,5.92-4.51,5.77S236.88,164.13,239,160.71Z"/><ellipse class="cls-6" cx="241.95" cy="162.7" rx="4.83" ry="0.42" transform="translate(-21.07 288.53) rotate(-59.49)"/><path class="cls-6" d="M239.8,163c3.07,1.24,5.63,2.1,5.57,2.33s-2.75-.29-5.88-1.55-5.43-2.77-5.31-3S236.73,161.75,239.8,163Z"/><path class="cls-6" d="M242.7,162.16c2.77,1.31,5.13,2.13,5.06,2.36s-2.57-.27-5.41-1.61-4.84-2.95-4.71-3.11S239.92,160.87,242.7,162.16Z"/></g><path class="cls-4" d="M219.88,136.33a1.14,1.14,0,1,1,1.14-1.14h0A1.14,1.14,0,0,1,219.88,136.33Zm0-1.63a.49.49,0,1,0,.49.49A.49.49,0,0,0,219.88,134.7Z"/><path class="cls-7" d="M219.88,137.31a2.12,2.12,0,1,1,2.13-2.12h0A2.13,2.13,0,0,1,219.88,137.31Zm0-2.94a.82.82,0,1,0,.82.82A.82.82,0,0,0,219.88,134.37Z"/><path class="cls-4" d="M229.35,136.34a1.14,1.14,0,1,1,1.14-1.14h0A1.14,1.14,0,0,1,229.35,136.34Zm0-1.63a.49.49,0,1,0,.49.49A.49.49,0,0,0,229.35,134.71Z"/><path class="cls-7" d="M229.35,137.32a2.12,2.12,0,1,1,2.13-2.12h0A2.13,2.13,0,0,1,229.35,137.32Zm0-2.94a.82.82,0,1,0,.82.82A.82.82,0,0,0,229.35,134.38Z"/><path class="cls-4" d="M238.83,136.35a1.14,1.14,0,1,1,1.14-1.14h0A1.14,1.14,0,0,1,238.83,136.35Zm0-1.63a.49.49,0,1,0,.49.49A.49.49,0,0,0,238.83,134.72Z"/><path class="cls-7" d="M238.82,137.33a2.12,2.12,0,1,1,2.13-2.12h0A2.13,2.13,0,0,1,238.82,137.33Zm0-2.94a.82.82,0,1,0,.82.82A.82.82,0,0,0,238.83,134.39Z"/><path class="cls-4" d="M223.72,95.51a1.14,1.14,0,1,1,1.14-1.14A1.14,1.14,0,0,1,223.72,95.51Zm0-1.63a.49.49,0,1,0,.49.49A.49.49,0,0,0,223.72,93.87Z"/><path class="cls-7" d="M223.72,96.49a2.12,2.12,0,1,1,2.13-2.12h0A2.13,2.13,0,0,1,223.72,96.49Zm0-2.94a.82.82,0,1,0,.82.82A.82.82,0,0,0,223.72,93.55Z"/><path class="cls-4" d="M233.19,95.52a1.14,1.14,0,1,1,1.14-1.14A1.14,1.14,0,0,1,233.19,95.52Zm0-1.63a.49.49,0,1,0,.49.49A.49.49,0,0,0,233.19,93.88Z"/><path class="cls-7" d="M233.19,96.5a2.12,2.12,0,1,1,2.13-2.12h0A2.13,2.13,0,0,1,233.19,96.5Zm0-2.94a.82.82,0,1,0,.82.82A.82.82,0,0,0,233.19,93.56Z"/><path class="cls-4" d="M242.66,95.53a1.14,1.14,0,1,1,1.14-1.14A1.14,1.14,0,0,1,242.66,95.53Zm0-1.63a.49.49,0,1,0,.49.49A.49.49,0,0,0,242.67,93.9Z"/><path class="cls-7" d="M242.66,96.51a2.12,2.12,0,1,1,2.13-2.12h0A2.13,2.13,0,0,1,242.66,96.51Zm0-2.94a.82.82,0,1,0,.82.82A.82.82,0,0,0,242.67,93.57Z"/><path class="cls-4" d="M221.86,643.27a1.14,1.14,0,1,1,1.14-1.14h0A1.14,1.14,0,0,1,221.86,643.27Zm0-1.63a.49.49,0,1,0,.49.49A.49.49,0,0,0,221.86,641.64Z"/><path class="cls-7" d="M221.86,644.25a2.12,2.12,0,1,1,2.13-2.12h0A2.13,2.13,0,0,1,221.86,644.25Zm0-2.94a.82.82,0,1,0,.82.82A.82.82,0,0,0,221.86,641.31Z"/><path class="cls-4" d="M231.33,643.28a1.14,1.14,0,1,1,1.14-1.14h0A1.14,1.14,0,0,1,231.33,643.28Zm0-1.63a.49.49,0,1,0,.49.49A.49.49,0,0,0,231.34,641.65Z"/><path class="cls-7" d="M231.33,644.26a2.12,2.12,0,1,1,2.13-2.12h0A2.13,2.13,0,0,1,231.33,644.26Zm0-2.94a.82.82,0,1,0,.82.82A.82.82,0,0,0,231.34,641.32Z"/><path class="cls-4" d="M240.81,643.29a1.14,1.14,0,1,1,1.14-1.14h0A1.14,1.14,0,0,1,240.81,643.29Zm0-1.63a.49.49,0,1,0,.49.49A.49.49,0,0,0,240.81,641.66Z"/><path class="cls-7" d="M240.8,644.27a2.12,2.12,0,1,1,2.13-2.12h0A2.13,2.13,0,0,1,240.8,644.27Zm0-2.94a.82.82,0,1,0,.82.82A.82.82,0,0,0,240.81,641.33Z"/><path class="cls-12" d="M211.15,158.65a65.53,65.53,0,0,1,.48-6.74,48.28,48.28,0,0,1,1-5.43c.76-3.06,1.62-4.86,2.18-4.77s.75,2.06.75,5.13c0,1.54,0,3.35-.08,5.36l-.14,6.53c0,2.32-.07,4.52-.1,6.53s-.06,3.82-.11,5.36c-.11,3.07-.36,5-.94,5.09s-1.35-1.76-2-4.84a48.29,48.29,0,0,1-.79-5.46A65.54,65.54,0,0,1,211.15,158.65Z"/><ellipse class="cls-12" cx="213.47" cy="183.8" rx="2.08" ry="4.9" transform="translate(-9.16 11.21) rotate(-2.95)"/><path class="cls-7" d="M231.39,356.82a17.66,17.66,0,0,1-17.62-17.66l.14-128.07a17.64,17.64,0,0,1,35.28,0L249,339.2A17.66,17.66,0,0,1,231.39,356.82Zm.18-160.4a14.71,14.71,0,0,0-14.72,14.68l-.14,128.07a14.7,14.7,0,0,0,29.4,0l.14-128.07a14.71,14.71,0,0,0-14.68-14.72Z"/><g class="cls-5"><polygon class="cls-8" points="253.27 218.61 253.24 242.97 213.99 289.5 214.02 265.14 253.27 218.61"/><path class="cls-8" d="M253.23,255.2l0,40-39.25,46.52v-.3l0-39.73Z"/></g><path class="cls-4" d="M231.57,361.56a22.07,22.07,0,0,1-22-22.07l.14-128.69a22,22,0,0,1,44.1,0l-.14,128.69A22.07,22.07,0,0,1,231.57,361.56Zm.19-167.89a17.17,17.17,0,0,0-17.17,17.13l-.14,128.69a17.17,17.17,0,0,0,17.13,17.17h0a17.17,17.17,0,0,0,17.17-17.13l.14-128.69a17.17,17.17,0,0,0-17.13-17.17Z"/><path class="cls-4" d="M231.57,202a1.14,1.14,0,1,1,1.14-1.14A1.14,1.14,0,0,1,231.57,202Zm0-1.63a.49.49,0,1,0,.49.49A.49.49,0,0,0,231.57,200.37Z"/><path class="cls-7" d="M231.56,203a2.12,2.12,0,1,1,2.13-2.12h0A2.13,2.13,0,0,1,231.56,203Zm0-2.94a.82.82,0,1,0,.82.82A.82.82,0,0,0,231.57,200Z"/><path class="cls-4" d="M231.4,350.94a1.14,1.14,0,1,1,1.14-1.14A1.14,1.14,0,0,1,231.4,350.94Zm0-1.63a.49.49,0,1,0,.49.49A.49.49,0,0,0,231.4,349.31Z"/><path class="cls-7" d="M231.4,351.92a2.12,2.12,0,1,1,2.13-2.12h0A2.13,2.13,0,0,1,231.4,351.92Zm0-2.94a.82.82,0,1,0,.82.82A.82.82,0,0,0,231.4,349Z"/><path class="cls-4" d="M236.28,485.66a4.06,4.06,0,0,0-.6-.45,7.35,7.35,0,0,0-1.06-.56,9.21,9.21,0,0,0-1.36-.46,5.93,5.93,0,0,0-1.49-.19,3.33,3.33,0,0,0-2,.49,1.63,1.63,0,0,0-.65,1.39,1.43,1.43,0,0,0,.25.86,2.14,2.14,0,0,0,.72.6,6,6,0,0,0,1.19.47q.72.21,1.66.45a22.94,22.94,0,0,1,2.23.71,6,6,0,0,1,1.7.95,3.9,3.9,0,0,1,1.07,1.36,4.5,4.5,0,0,1,.38,2,4.85,4.85,0,0,1-.51,2.29,4.26,4.26,0,0,1-1.37,1.54,5.94,5.94,0,0,1-2,.86,10,10,0,0,1-2.35.27,12.61,12.61,0,0,1-3.73-.57,11.5,11.5,0,0,1-3.3-1.61l1.44-2.8a4.53,4.53,0,0,0,.77.56,11.61,11.61,0,0,0,1.31.68,10.15,10.15,0,0,0,1.67.58,7.56,7.56,0,0,0,1.89.24q2.69,0,2.69-1.72a1.41,1.41,0,0,0-.31-.92,2.61,2.61,0,0,0-.87-.65,8.37,8.37,0,0,0-1.37-.52l-1.79-.52a15.22,15.22,0,0,1-2.09-.72,5.48,5.48,0,0,1-1.47-.92,3.45,3.45,0,0,1-.88-1.23,4.25,4.25,0,0,1-.29-1.66,5.2,5.2,0,0,1,.47-2.26,4.57,4.57,0,0,1,1.31-1.65,5.93,5.93,0,0,1,2-1,8.05,8.05,0,0,1,2.38-.32,9.25,9.25,0,0,1,3.27.56,12.14,12.14,0,0,1,2.59,1.31Z"/><path class="cls-4" d="M226.4,520.61l0-16.75h7.1a4.76,4.76,0,0,1,2.14.49,5.53,5.53,0,0,1,1.68,1.28,6,6,0,0,1,1.11,1.79,5.4,5.4,0,0,1,.4,2,5.82,5.82,0,0,1-.37,2.08,5.73,5.73,0,0,1-1.06,1.78,5.23,5.23,0,0,1-1.65,1.25,4.78,4.78,0,0,1-2.12.47h-4v5.61Zm3.28-8.47h3.78a1.87,1.87,0,0,0,1.5-.73,3,3,0,0,0,.6-2,3.27,3.27,0,0,0-.19-1.14,2.79,2.79,0,0,0-.5-.86,2,2,0,0,0-.72-.53,2.11,2.11,0,0,0-.84-.18h-3.66Z"/><path class="cls-4" d="M230.37,526.46h2.86l6.35,16.76h-3.33L234.7,539h-5.85l-1.54,4.17H224Zm3.74,10.29-2.31-6.58-2.41,6.58Z"/><path class="cls-4" d="M224.35,557.31a8.67,8.67,0,0,1,.56-3,8.13,8.13,0,0,1,4.22-4.57,8,8,0,0,1,3.49-.73,7.62,7.62,0,0,1,4,1,6.48,6.48,0,0,1,2.51,2.65l-2.5,1.72a4.29,4.29,0,0,0-.8-1.19,4,4,0,0,0-1-.77,4.57,4.57,0,0,0-1.13-.41,5.39,5.39,0,0,0-1.16-.13,4.39,4.39,0,0,0-2.14.49,4.69,4.69,0,0,0-1.51,1.29,5.67,5.67,0,0,0-.91,1.79,6.78,6.78,0,0,0-.31,2,6.5,6.5,0,0,0,.35,2.14,5.68,5.68,0,0,0,1,1.81,5,5,0,0,0,1.56,1.25,4.25,4.25,0,0,0,2,.47,5.25,5.25,0,0,0,1.18-.14,4.48,4.48,0,0,0,1.17-.45,4.42,4.42,0,0,0,1-.79,3.65,3.65,0,0,0,.76-1.17l2.66,1.53a5,5,0,0,1-1.15,1.66,7.36,7.36,0,0,1-1.68,1.21,8.55,8.55,0,0,1-2,.75,8.74,8.74,0,0,1-2.08.26,7.13,7.13,0,0,1-3.27-.76,8.54,8.54,0,0,1-2.56-2,9.15,9.15,0,0,1-1.67-2.76A8.61,8.61,0,0,1,224.35,557.31Z"/><path class="cls-4" d="M238,585.56v2.85H226.33l0-16.75h11.43v2.85h-8.19v4h7.06v2.64h-7.06v4.36Z"/><polygon class="cls-2" points="173.48 652.49 173.83 337.09 103.52 337.01 103.16 652.61 173.48 652.49"/><polygon class="cls-8" points="112.99 336.44 112.64 652.02 105.78 652.03 106.13 336.43 112.99 336.44"/><polygon class="cls-3" points="171.11 336.5 170.76 652.08 164.58 652.09 164.93 336.5 171.11 336.5"/><rect class="cls-3" x="135.28" y="310.43" width="2.22" height="61.58" transform="translate(-204.98 477.23) rotate(-89.94)"/><path class="cls-11" d="M138.5,405.06h0a19.6,19.6,0,0,1,19.58,19.62l-.14,128.69A19.6,19.6,0,0,1,138.31,573h0a19.6,19.6,0,0,1-19.58-19.62l.14-128.69A19.6,19.6,0,0,1,138.5,405.06Z"/><g class="cls-5"><path class="cls-6" d="M146.46,601.87c2.1-3.4,3.6-6.28,3.83-6.18s-1,3.17-3.12,6.62-4.34,5.9-4.51,5.76S144.37,605.28,146.46,601.87Z"/><ellipse class="cls-6" cx="149.43" cy="603.85" rx="4.83" ry="0.42" transform="translate(-446.66 425.98) rotate(-59.49)"/><path class="cls-6" d="M147.29,604.13c3.07,1.24,5.63,2.1,5.57,2.33s-2.75-.29-5.88-1.55-5.43-2.77-5.31-3S144.22,602.9,147.29,604.13Z"/><path class="cls-6" d="M150.18,603.3c2.77,1.31,5.13,2.13,5.06,2.36s-2.57-.27-5.41-1.61-4.84-2.95-4.71-3.11S147.42,602,150.18,603.3Z"/></g><g class="cls-5"><path class="cls-6" d="M145.73,375.21c2.1-3.4,3.6-6.28,3.83-6.18s-1,3.17-3.12,6.62-4.34,5.92-4.5,5.77S143.64,378.63,145.73,375.21Z"/><ellipse class="cls-6" cx="148.71" cy="377.16" rx="4.83" ry="0.42" transform="translate(-251.74 313.84) rotate(-59.5)"/><path class="cls-6" d="M146.55,377.5c3.07,1.24,5.63,2.1,5.57,2.33s-2.75-.29-5.88-1.55-5.43-2.77-5.31-3S143.48,376.25,146.55,377.5Z"/><path class="cls-6" d="M149.46,376.66c2.77,1.31,5.13,2.13,5.06,2.36s-2.57-.27-5.41-1.61-4.84-2.95-4.71-3.11S146.68,375.37,149.46,376.66Z"/></g><path class="cls-4" d="M126.62,350.83a1.14,1.14,0,1,1,1.14-1.14A1.14,1.14,0,0,1,126.62,350.83Zm0-1.63a.49.49,0,1,0,.49.49A.49.49,0,0,0,126.63,349.19Z"/><path class="cls-7" d="M126.62,351.81a2.12,2.12,0,1,1,2.13-2.12h0A2.13,2.13,0,0,1,126.62,351.81Zm0-2.94a.82.82,0,1,0,.82.82A.82.82,0,0,0,126.63,348.87Z"/><path class="cls-4" d="M136.1,350.84a1.14,1.14,0,1,1,1.14-1.14A1.14,1.14,0,0,1,136.1,350.84Zm0-1.63a.49.49,0,1,0,.49.49A.49.49,0,0,0,136.1,349.2Z"/><path class="cls-7" d="M136.09,351.82a2.12,2.12,0,1,1,2.13-2.12h0A2.13,2.13,0,0,1,136.09,351.82Zm0-2.94a.82.82,0,1,0,.82.82A.82.82,0,0,0,136.1,348.88Z"/><path class="cls-4" d="M145.57,350.85a1.14,1.14,0,1,1,1.14-1.14A1.14,1.14,0,0,1,145.57,350.85Zm0-1.63a.49.49,0,1,0,.49.49A.49.49,0,0,0,145.57,349.21Z"/><path class="cls-7" d="M145.57,351.83a2.12,2.12,0,1,1,2.13-2.12h0A2.13,2.13,0,0,1,145.57,351.83Zm0-2.94a.82.82,0,1,0,.82.82A.82.82,0,0,0,145.57,348.89Z"/><path class="cls-4" d="M128.19,310a1.14,1.14,0,1,1,1.14-1.14h0A1.14,1.14,0,0,1,128.19,310Zm0-1.63a.49.49,0,1,0,.49.49.49.49,0,0,0-.49-.49Z"/><path class="cls-7" d="M128.19,311a2.12,2.12,0,1,1,2.13-2.12h0A2.13,2.13,0,0,1,128.19,311Zm0-2.94a.82.82,0,1,0,.82.82A.82.82,0,0,0,128.19,308Z"/><path class="cls-4" d="M137.66,310a1.14,1.14,0,1,1,1.14-1.14h0A1.14,1.14,0,0,1,137.66,310Zm0-1.63a.49.49,0,1,0,.49.49.49.49,0,0,0-.49-.49Z"/><path class="cls-7" d="M137.66,311a2.12,2.12,0,1,1,2.13-2.12h0A2.13,2.13,0,0,1,137.66,311Zm0-2.94a.82.82,0,1,0,.82.82A.82.82,0,0,0,137.66,308Z"/><path class="cls-4" d="M147.13,310a1.14,1.14,0,1,1,1.14-1.14h0A1.14,1.14,0,0,1,147.13,310Zm0-1.63a.49.49,0,1,0,.49.49.49.49,0,0,0-.49-.49Z"/><path class="cls-7" d="M147.13,311a2.12,2.12,0,1,1,2.13-2.12h0A2.13,2.13,0,0,1,147.13,311Zm0-2.94a.82.82,0,1,0,.82.82A.82.82,0,0,0,147.14,308.06Z"/><path class="cls-7" d="M138.13,571.32a17.66,17.66,0,0,1-17.62-17.66l.14-128.07a17.64,17.64,0,1,1,35.28,0l-.14,128.07A17.66,17.66,0,0,1,138.13,571.32Zm.18-160.4A14.71,14.71,0,0,0,123.6,425.6l-.14,128.07a14.7,14.7,0,1,0,29.4,0L153,425.63a14.71,14.71,0,0,0-14.68-14.72Z"/><g class="cls-5"><polygon class="cls-8" points="160.02 433.11 160 457.46 120.75 503.99 120.78 479.64 160.02 433.11"/><path class="cls-8" d="M160,469.69l0,40-39.25,46.52v-.3l0-39.73Z"/></g><path class="cls-4" d="M138.32,576.05a22.07,22.07,0,0,1-22-22.07l.14-128.69a22,22,0,1,1,44.1,0L160.4,554A22.07,22.07,0,0,1,138.32,576.05Zm.19-167.89a17.17,17.17,0,0,0-17.17,17.13L121.2,554a17.15,17.15,0,1,0,34.3,0l.14-128.69A17.17,17.17,0,0,0,138.51,408.16Z"/><path class="cls-4" d="M138.31,416.49a1.14,1.14,0,1,1,1.14-1.14A1.14,1.14,0,0,1,138.31,416.49Zm0-1.63a.49.49,0,1,0,.49.49A.49.49,0,0,0,138.31,414.86Z"/><path class="cls-7" d="M138.31,417.47a2.12,2.12,0,1,1,2.13-2.12h0A2.13,2.13,0,0,1,138.31,417.47Zm0-2.94a.82.82,0,1,0,.82.82A.82.82,0,0,0,138.31,414.53Z"/><path class="cls-4" d="M138.14,565.44a1.14,1.14,0,1,1,1.14-1.14h0A1.14,1.14,0,0,1,138.14,565.44Zm0-1.63a.49.49,0,1,0,.49.49A.49.49,0,0,0,138.14,563.8Z"/><path class="cls-7" d="M138.14,566.42a2.12,2.12,0,1,1,2.13-2.12A2.12,2.12,0,0,1,138.14,566.42Zm0-2.94a.82.82,0,1,0,.82.82A.82.82,0,0,0,138.14,563.48Z"/><path class="cls-4" d="M171.26,339.44l-61.73-.07a12.27,12.27,0,0,1-12.24-12.27v-9.52A177.72,177.72,0,0,1,124.65,223l.94-1.5a15,15,0,0,1,25.26-.18l.52.8a177.51,177.51,0,0,1,28.72,97.12v11.39A8.82,8.82,0,0,1,171.26,339.44Zm-33-119.07h-.08a9.07,9.07,0,0,0-7.64,4.26l-.94,1.5a171.85,171.85,0,0,0-26.45,91.46v9.52a6.38,6.38,0,0,0,6.37,6.38l61.73.07a2.94,2.94,0,0,0,2.94-2.94h0V319.24a171.65,171.65,0,0,0-27.77-93.92l-.52-.8A9.07,9.07,0,0,0,138.3,220.37Z"/><circle class="cls-8" cx="337.86" cy="589.83" r="2.61" transform="translate(-252.36 927.03) rotate(-89.94)"/><circle class="cls-8" cx="340.62" cy="599.47" r="4.08" transform="matrix(0, -1, 1, 0, -259.23, 939.42)"/><circle class="cls-10" cx="223.16" cy="36.71" r="2.61" transform="translate(83.94 214.94) rotate(-61.35)"/><circle class="cls-10" cx="220.98" cy="46.5" r="4.08" transform="translate(74.21 218.12) rotate(-61.35)"/><circle class="cls-8" cx="123.91" cy="591.23" r="2.61" transform="translate(-467.46 714.47) rotate(-89.94)"/><circle class="cls-8" cx="121.12" cy="600.86" r="4.08" transform="matrix(0, -1, 1, 0, -479.87, 721.3)"/><circle class="cls-8" cx="132.48" cy="433.47" r="2.61" transform="matrix(0, -1, 1, 0, -301.14, 565.47)"/><circle class="cls-8" cx="129.7" cy="443.1" r="4.08" transform="matrix(0, -1, 1, 0, -313.55, 572.3)"/><path class="cls-8" d="M254.63,735.75l-48.34-.05,8.25-71.94a16.1,16.1,0,0,1,16-14.26h0a16.1,16.1,0,0,1,16,14.3Z"/><path class="cls-3" d="M228.77,652a19.2,19.2,0,0,1,2.84,5.13c2.28,6,1.95,12.65,1.61,19.07l10.16.34a2.11,2.11,0,0,0,1-.13c.67-.33.8-1.2.85-2,.35-5.64.67-11.52-1.51-16.74a9.31,9.31,0,0,0-1.93-3.08,10.53,10.53,0,0,0-5.45-2.46,33.76,33.76,0,0,0-6.86-.66"/><path class="cls-3" d="M221.41,677.76a31.72,31.72,0,0,1,8.91,16.67,1.75,1.75,0,0,0,.5,1.11,1.69,1.69,0,0,0,1,.24l13.63.15c.48,0,2,.66,2.4.46.93-.43.26-1.25.42-2.26a37.81,37.81,0,0,0-.87-15.26,2.31,2.31,0,0,0-.76-1.34,2.4,2.4,0,0,0-1.31-.3l-23.1-.65"/><path class="cls-3" d="M225,697.62a23.65,23.65,0,0,1,5.13,18.09c6.12-1.51,12.58,1.28,18.8.28a1.75,1.75,0,0,0,1.23-.58,1.78,1.78,0,0,0,.23-.83c.53-5.11.42-10.35-1.54-15.11-.33-.76,0-2.2-.72-2.66s-3,.15-3.84.15H225.5"/><path class="cls-3" d="M223.06,715.72c3.43,1.33,5.67,4.73,6.8,8.24s1.37,7.22,2.12,10.83a1.75,1.75,0,0,0,.38.9c.47.47,1.25.3,1.89.1a28.92,28.92,0,0,1,8.14-1.23c3.38,0,6.94.52,10-.88a2.26,2.26,0,0,0,1.16-.95,2.62,2.62,0,0,0,0-1.63q-1.14-6.11-2.37-12.21a2.57,2.57,0,0,0-2.67-2.53,97.17,97.17,0,0,0-25.29-1.19"/><rect class="cls-4" x="229.67" y="692.11" width="1.31" height="47.36" transform="translate(-485.73 945.31) rotate(-89.94)"/><rect class="cls-7" x="229.67" y="690.81" width="1.31" height="47.36" transform="translate(-484.42 944) rotate(-89.94)"/><rect class="cls-9" x="229.67" y="693.42" width="1.31" height="47.36" transform="translate(-487.04 946.61) rotate(-89.94)"/><rect class="cls-4" x="230.02" y="675.13" width="1.31" height="42.79" transform="translate(-466.11 926.41) rotate(-89.94)"/><rect class="cls-7" x="230.02" y="673.82" width="1.31" height="42.79" transform="translate(-464.8 925.1) rotate(-89.94)"/><rect class="cls-9" x="230.01" y="676.43" width="1.31" height="42.79" transform="translate(-467.42 927.71) rotate(-89.94)"/><path class="cls-4" d="M249.14,738.68l-37.38,0A7.84,7.84,0,0,1,204,729.9l7.63-66.49a13.49,13.49,0,0,1,6.73-10.6c3.09-1.78,7.19-2.68,12.2-2.67s9.11.92,12.19,2.7a13.49,13.49,0,0,1,6.71,10.61L256.93,730a7.84,7.84,0,0,1-7.8,8.72ZM230.55,656c-10.9,0-12.69,4.6-13.07,8.06l-7.63,66.49a2,2,0,0,0,1.72,2.17h.23l37.37,0a2,2,0,0,0,2-2.18l-7.48-66.51c-.85-7.24-7.88-8.09-13.1-8.09Z"/><path class="cls-8" d="M347.4,735.85l-48.34-.05,8.25-71.94a16.1,16.1,0,0,1,16-14.26h0a16.1,16.1,0,0,1,16,14.3Z"/><path class="cls-3" d="M321.53,652.07a19.2,19.2,0,0,1,2.84,5.13c2.28,6,1.95,12.65,1.61,19.07l10.16.34a2.11,2.11,0,0,0,1-.13c.67-.33.8-1.2.85-2,.35-5.64.67-11.52-1.51-16.74a9.31,9.31,0,0,0-1.93-3.08,10.53,10.53,0,0,0-5.45-2.46,33.76,33.76,0,0,0-6.86-.66"/><path class="cls-3" d="M314.17,677.86a31.72,31.72,0,0,1,8.91,16.67,1.75,1.75,0,0,0,.5,1.11,1.69,1.69,0,0,0,1,.24l13.63.15c.48,0,2,.66,2.4.46.93-.43.26-1.25.42-2.26A37.81,37.81,0,0,0,340.2,679a2.31,2.31,0,0,0-.76-1.34,2.4,2.4,0,0,0-1.31-.3l-23.1-.65"/><path class="cls-3" d="M317.81,697.72a23.65,23.65,0,0,1,5.13,18.09c6.12-1.51,12.58,1.28,18.8.28a1.75,1.75,0,0,0,1.23-.58,1.78,1.78,0,0,0,.23-.83c.53-5.11.42-10.35-1.54-15.11-.33-.76,0-2.2-.72-2.66s-3,.15-3.84.15H318.27"/><path class="cls-3" d="M315.83,715.83c3.43,1.33,5.67,4.73,6.8,8.24s1.37,7.22,2.12,10.83a1.75,1.75,0,0,0,.38.9c.47.47,1.25.3,1.89.1a28.92,28.92,0,0,1,8.14-1.23c3.38,0,6.94.52,10-.88a2.26,2.26,0,0,0,1.16-.95,2.62,2.62,0,0,0,0-1.63Q345.25,725.09,344,719a2.57,2.57,0,0,0-2.67-2.53,97.17,97.17,0,0,0-25.29-1.19"/><rect class="cls-4" x="322.43" y="692.22" width="1.31" height="47.36" transform="translate(-393.18 1038.18) rotate(-89.94)"/><rect class="cls-7" x="322.43" y="690.91" width="1.31" height="47.36" transform="translate(-391.87 1036.87) rotate(-89.94)"/><rect class="cls-9" x="322.43" y="693.52" width="1.31" height="47.36" transform="translate(-394.48 1039.48) rotate(-89.94)"/><rect class="cls-4" x="322.78" y="675.23" width="1.31" height="42.79" transform="translate(-373.56 1019.28) rotate(-89.94)"/><rect class="cls-7" x="322.78" y="673.93" width="1.31" height="42.79" transform="translate(-372.25 1017.97) rotate(-89.94)"/><rect class="cls-9" x="322.78" y="676.54" width="1.31" height="42.79" transform="translate(-374.87 1020.58) rotate(-89.94)"/><path class="cls-4" d="M341.91,738.78l-37.38,0a7.84,7.84,0,0,1-7.78-8.73l7.63-66.49a13.49,13.49,0,0,1,6.73-10.6c3.09-1.78,7.19-2.68,12.2-2.67h2.94v.42a22.19,22.19,0,0,1,9.2,2.4,12.93,12.93,0,0,1,6.77,10.48l7.48,66.51a7.84,7.84,0,0,1-7.8,8.72Zm-21.53-82.54c-8.29.75-9.78,4.81-10.13,7.94l-7.63,66.49a2,2,0,0,0,1.72,2.17h.23l37.37,0a2,2,0,0,0,2-2.18l-7.48-66.51c-.41-3.61-2.26-7.75-13.06-7.77h-2.94Z"/><rect class="cls-13" x="203.86" y="411.21" width="55.85" height="39.2" rx="6.49" ry="6.49" transform="translate(-199.28 662.11) rotate(-89.94)"/><circle class="cls-8" cx="224.61" cy="425.08" r="1.31" transform="translate(-200.73 649.21) rotate(-89.94)"/><circle class="cls-14" cx="225.92" cy="413.98" r="1.31" transform="translate(-188.31 639.44) rotate(-89.94)"/><circle class="cls-8" cx="242.25" cy="418.24" r="1.31" transform="translate(-176.26 660.02) rotate(-89.94)"/><circle class="cls-8" cx="219.68" cy="447.94" r="1.31" transform="translate(-228.51 667.12) rotate(-89.94)"/><circle class="cls-8" cx="225.89" cy="447.62" r="2.94" transform="matrix(0, -1, 1, 0, -221.99, 673)"/><circle class="cls-8" cx="231.29" cy="432.44" r="2.12" transform="translate(-201.41 663.25) rotate(-89.94)"/><path class="cls-4" d="M352.78,655.83h0l-59.12-.23c-4.84,0-8.49-2.72-8.49-6.27l.35-315.14,76.19.09-.35,315.31a5.36,5.36,0,0,1-1.65,3.78A10,10,0,0,1,352.78,655.83ZM291,649a4.52,4.52,0,0,0,2.63.7l59.12.23h0a4.48,4.48,0,0,0,2.65-.69l.35-309.12-64.42-.07Z"/><rect class="cls-4" x="138.49" y="591.24" width="1.31" height="67.94" transform="translate(-486.23 763.65) rotate(-89.94)"/><rect class="cls-7" x="138.49" y="589.94" width="1.31" height="67.94" transform="translate(-484.92 762.35) rotate(-89.94)"/><rect class="cls-9" x="138.49" y="592.55" width="1.31" height="67.94" transform="translate(-487.54 764.95) rotate(-89.94)"/><rect class="cls-4" x="138.49" y="582.1" width="1.31" height="67.94" transform="translate(-477.08 754.51) rotate(-89.94)"/><rect class="cls-7" x="138.49" y="580.79" width="1.31" height="67.94" transform="translate(-475.78 753.21) rotate(-89.94)"/><rect class="cls-9" x="138.48" y="583.4" width="1.31" height="67.94" transform="translate(-478.39 755.82) rotate(-89.94)"/><path class="cls-4" d="M108.75,655.56a9.87,9.87,0,0,1-6.88-2.49,5.36,5.36,0,0,1-1.65-3.78L100.58,334l76.19.09-.35,315.14c0,3.56-3.66,6.25-8.5,6.26l-59.12.1ZM106.11,649a4.52,4.52,0,0,0,2.65.7h0l59.12-.1a4.46,4.46,0,0,0,2.63-.69l.35-309-64.43-.07Z"/><path class="cls-4" d="M352.7,339.65l-58.47-.07a12.09,12.09,0,0,1-12.07-12.1h0v-8.12a177.51,177.51,0,0,1,29-97.06l.52-.8a15,15,0,0,1,25.26.24l.94,1.5A177.72,177.72,0,0,1,365,317.89v9.52A12.27,12.27,0,0,1,352.7,339.65ZM324.2,220.58a9.07,9.07,0,0,0-7.64,4.13l-.52.8a171.65,171.65,0,0,0-28,93.85v8.12a6.21,6.21,0,0,0,6.2,6.21h0l58.47.07a6.38,6.38,0,0,0,6.38-6.37v-9.52a171.85,171.85,0,0,0-26.24-91.52l-.94-1.5a9.07,9.07,0,0,0-7.65-4.27Z"/><path class="cls-4" d="M263.25,124.95l-62.64-.07a10.09,10.09,0,0,1-10.06-10.08v-11.7A177.72,177.72,0,0,1,217.91,8.5l.94-1.5a15,15,0,0,1,25.26-.18l.52.8a177.51,177.51,0,0,1,28.72,97.12v10.13A10.09,10.09,0,0,1,263.25,124.95ZM231.53,5.88h-.08a9.07,9.07,0,0,0-7.64,4.26l-.94,1.5a171.85,171.85,0,0,0-26.45,91.46v11.7a4.2,4.2,0,0,0,4.19,4.2l62.65.07a4.2,4.2,0,0,0,4.2-4.19V104.75a171.65,171.65,0,0,0-27.77-93.92l-.52-.8A9.07,9.07,0,0,0,231.53,5.88Z"/><rect class="cls-3" x="229.92" y="95.94" width="2.22" height="61.58" transform="translate(104.05 357.62) rotate(-89.94)"/><path class="cls-4" d="M201.75,655.8a8.53,8.53,0,0,1-8.52-8.54l.59-527.78,76.19.09-.59,527.51a8.55,8.55,0,0,1-8.5,8.52l-59.12.21ZM199.7,125.37l-.59,521.9a2.65,2.65,0,0,0,2.65,2.65h0l59.12-.21a2.66,2.66,0,0,0,2.64-2.65l.59-521.63Z"/><rect class="cls-8" x="219.08" y="620.61" width="24.17" height="81.26" rx="3.92" ry="3.92" transform="translate(-430.34 891.67) rotate(-89.94)"/><path class="cls-2" d="M271.85,655.41l0,13.72a3.92,3.92,0,0,1-3.92,3.92L194.48,673a3.92,3.92,0,0,1-3.92-3.92v-1.85a281.68,281.68,0,0,0,57.07-3.2C256.09,662.64,265.21,660.39,271.85,655.41Z"/><path class="cls-4" d="M267.32,677.7l-73.42-.08a6.86,6.86,0,0,1-6.85-6.87l0-16.33a6.86,6.86,0,0,1,6.87-6.85l73.42.08a6.86,6.86,0,0,1,6.85,6.87l0,16.33A6.86,6.86,0,0,1,267.32,677.7Zm-73.4-24.25a1,1,0,0,0-1,1l0,16.33a1,1,0,0,0,1,1l73.42.08a1,1,0,0,0,1-1l0-16.33a1,1,0,0,0-1-1Z"/><path class="cls-4" d="M221.15,663.77a1.14,1.14,0,1,1,1.14-1.14h0A1.14,1.14,0,0,1,221.15,663.77Zm0-1.63a.49.49,0,1,0,.49.49A.49.49,0,0,0,221.15,662.13Z"/><path class="cls-7" d="M221.14,664.75a2.12,2.12,0,1,1,2.13-2.12h0A2.13,2.13,0,0,1,221.14,664.75Zm0-2.94a.82.82,0,1,0,.82.82h0A.82.82,0,0,0,221.15,661.81Z"/><path class="cls-4" d="M230.62,663.78a1.14,1.14,0,1,1,1.14-1.14h0A1.14,1.14,0,0,1,230.62,663.78Zm0-1.63a.49.49,0,1,0,.49.49A.49.49,0,0,0,230.62,662.14Z"/><path class="cls-7" d="M230.62,664.76a2.12,2.12,0,1,1,2.13-2.12h0A2.13,2.13,0,0,1,230.62,664.76Zm0-2.94a.82.82,0,1,0,.82.82h0A.82.82,0,0,0,230.62,661.82Z"/><path class="cls-4" d="M240.09,663.79a1.14,1.14,0,1,1,1.14-1.14h0A1.14,1.14,0,0,1,240.09,663.79Zm0-1.63a.49.49,0,1,0,.49.49A.49.49,0,0,0,240.09,662.15Z"/><path class="cls-7" d="M240.09,664.77a2.12,2.12,0,1,1,2.13-2.12h0A2.13,2.13,0,0,1,240.09,664.77Zm0-2.94a.82.82,0,1,0,.82.82h0A.82.82,0,0,0,240.09,661.83Z"/><rect class="cls-4" x="243.05" y="661.6" width="21.56" height="1.31" transform="translate(-408.71 915.34) rotate(-89.94)"/><rect class="cls-7" x="244.36" y="661.6" width="21.56" height="1.31" transform="translate(-407.4 916.64) rotate(-89.94)"/><rect class="cls-7" x="241.74" y="661.6" width="21.56" height="1.31" transform="translate(-410.01 914.03) rotate(-89.94)"/><rect class="cls-4" x="247.95" y="661.6" width="21.56" height="1.31" transform="translate(-403.82 920.24) rotate(-89.94)"/><rect class="cls-7" x="249.26" y="661.61" width="21.56" height="1.31" transform="translate(-402.51 921.55) rotate(-89.94)"/><rect class="cls-7" x="246.64" y="661.6" width="21.56" height="1.31" transform="translate(-405.12 918.93) rotate(-89.94)"/><rect class="cls-8" x="311.52" y="620.72" width="24.17" height="81.26" rx="3.92" ry="3.92" transform="translate(-338.11 984.21) rotate(-89.94)"/><path class="cls-2" d="M364.28,655.51l0,13.72a3.92,3.92,0,0,1-3.92,3.92l-73.42-.08a3.92,3.92,0,0,1-3.92-3.92v-1.85a281.68,281.68,0,0,0,57.07-3.2C348.53,662.75,357.65,660.49,364.28,655.51Z"/><path class="cls-4" d="M359.75,677.8l-73.42-.08a6.86,6.86,0,0,1-6.85-6.87l0-16.33a6.86,6.86,0,0,1,6.87-6.85l73.42.08a6.86,6.86,0,0,1,6.85,6.87l0,16.33A6.86,6.86,0,0,1,359.75,677.8Zm-73.4-24.25a1,1,0,0,0-1,1l0,16.33a1,1,0,0,0,1,1l73.42.08a1,1,0,0,0,1-1l0-16.33a1,1,0,0,0-1-1Z"/><path class="cls-4" d="M313.58,663.87a1.14,1.14,0,1,1,1.14-1.14h0A1.14,1.14,0,0,1,313.58,663.87Zm0-1.63a.49.49,0,1,0,.49.49A.49.49,0,0,0,313.58,662.24Z"/><path class="cls-7" d="M313.58,664.85a2.12,2.12,0,1,1,2.13-2.12h0A2.13,2.13,0,0,1,313.58,664.85Zm0-2.94a.82.82,0,1,0,.82.82h0A.82.82,0,0,0,313.58,661.91Z"/><path class="cls-4" d="M323.06,663.88a1.14,1.14,0,1,1,1.14-1.14h0A1.14,1.14,0,0,1,323.06,663.88Zm0-1.63a.49.49,0,1,0,.49.49A.49.49,0,0,0,323.06,662.25Z"/><path class="cls-7" d="M323.05,664.86a2.12,2.12,0,1,1,2.13-2.12h0A2.13,2.13,0,0,1,323.05,664.86Zm0-2.94a.82.82,0,1,0,.82.82h0A.82.82,0,0,0,323.06,661.92Z"/><path class="cls-4" d="M332.53,663.89a1.14,1.14,0,1,1,1.14-1.14h0A1.14,1.14,0,0,1,332.53,663.89Zm0-1.63a.49.49,0,1,0,.49.49A.49.49,0,0,0,332.53,662.26Z"/><path class="cls-7" d="M332.53,664.87a2.12,2.12,0,1,1,2.13-2.12h0A2.13,2.13,0,0,1,332.53,664.87Zm0-2.94a.82.82,0,1,0,.82.82h0A.82.82,0,0,0,332.53,661.93Z"/><rect class="cls-4" x="335.49" y="661.7" width="21.56" height="1.31" transform="translate(-316.48 1007.88) rotate(-89.94)"/><rect class="cls-7" x="336.8" y="661.7" width="21.56" height="1.31" transform="translate(-315.17 1009.19) rotate(-89.94)"/><rect class="cls-7" x="334.18" y="661.7" width="21.56" height="1.31" transform="translate(-317.78 1006.57) rotate(-89.94)"/><rect class="cls-4" x="340.39" y="661.71" width="21.56" height="1.31" transform="translate(-311.59 1012.78) rotate(-89.94)"/><rect class="cls-7" x="341.69" y="661.71" width="21.56" height="1.31" transform="translate(-310.29 1014.09) rotate(-89.94)"/><rect class="cls-7" x="339.08" y="661.71" width="21.56" height="1.31" transform="translate(-312.89 1011.47) rotate(-89.94)"/><rect class="cls-8" x="126.31" y="620.51" width="24.17" height="81.26" rx="3.92" ry="3.92" transform="translate(-522.9 798.8) rotate(-89.94)"/><path class="cls-2" d="M179.08,655.31l0,13.72a3.92,3.92,0,0,1-3.92,3.92l-73.42-.08a3.92,3.92,0,0,1-3.92-3.92v-1.85a281.68,281.68,0,0,0,57.07-3.2C163.33,662.54,172.45,660.29,179.08,655.31Z"/><path class="cls-4" d="M174.55,677.6l-73.42-.08a6.86,6.86,0,0,1-6.85-6.87l0-16.33a6.86,6.86,0,0,1,6.87-6.85l73.42.08a6.86,6.86,0,0,1,6.85,6.87l0,16.33A6.86,6.86,0,0,1,174.55,677.6Zm-73.4-24.25a1,1,0,0,0-1,1l0,16.33a1,1,0,0,0,1,1l73.42.08a1,1,0,0,0,1-1l0-16.33a1,1,0,0,0-1-1Z"/><path class="cls-4" d="M128.38,663.66a1.14,1.14,0,1,1,1.14-1.14h0A1.14,1.14,0,0,1,128.38,663.66Zm0-1.63a.49.49,0,1,0,.49.49A.49.49,0,0,0,128.38,662Z"/><path class="cls-7" d="M128.38,664.64a2.12,2.12,0,1,1,2.13-2.12h0A2.13,2.13,0,0,1,128.38,664.64Zm0-2.94a.82.82,0,1,0,.82.82h0A.82.82,0,0,0,128.38,661.7Z"/><path class="cls-4" d="M137.85,663.67a1.14,1.14,0,1,1,1.14-1.14h0A1.14,1.14,0,0,1,137.85,663.67Zm0-1.63a.49.49,0,1,0,.49.49A.49.49,0,0,0,137.86,662Z"/><path class="cls-7" d="M137.85,664.65a2.12,2.12,0,1,1,2.13-2.12h0A2.13,2.13,0,0,1,137.85,664.65Zm0-2.94a.82.82,0,1,0,.82.82h0A.82.82,0,0,0,137.86,661.71Z"/><path class="cls-4" d="M147.33,663.68a1.14,1.14,0,1,1,1.14-1.14h0A1.14,1.14,0,0,1,147.33,663.68Zm0-1.63a.49.49,0,1,0,.49.49A.49.49,0,0,0,147.33,662.05Z"/><path class="cls-7" d="M147.32,664.66a2.12,2.12,0,1,1,2.13-2.12h0A2.13,2.13,0,0,1,147.32,664.66Zm0-2.94a.82.82,0,1,0,.82.82h0A.82.82,0,0,0,147.33,661.72Z"/><rect class="cls-4" x="150.29" y="661.49" width="21.56" height="1.31" transform="translate(-501.26 822.47) rotate(-89.94)"/><rect class="cls-7" x="151.59" y="661.5" width="21.56" height="1.31" transform="translate(-499.96 823.78) rotate(-89.94)"/><rect class="cls-7" x="148.98" y="661.49" width="21.56" height="1.31" transform="translate(-502.57 821.16) rotate(-89.94)"/><rect class="cls-4" x="155.19" y="661.5" width="21.56" height="1.31" transform="translate(-496.37 827.37) rotate(-89.94)"/><rect class="cls-7" x="156.49" y="661.5" width="21.56" height="1.31" transform="translate(-495.07 828.68) rotate(-89.94)"/><rect class="cls-7" x="153.88" y="661.5" width="21.56" height="1.31" transform="translate(-497.68 826.07) rotate(-89.94)"/></g></g></g></g></svg>