<?xml version="1.0" encoding="utf-8"?>
<!-- Generator: Adobe Illustrator 18.0.0, SVG Export Plug-In . SVG Version: 6.00 Build 0)  -->
<!DOCTYPE svg PUBLIC "-//W3C//DTD SVG 1.1//EN" "http://www.w3.org/Graphics/SVG/1.1/DTD/svg11.dtd">
<svg version="1.1" id="Layer_1" xmlns="http://www.w3.org/2000/svg" xmlns:xlink="http://www.w3.org/1999/xlink" x="0px" y="0px"
	 width="800px" height="600px" viewBox="0 0 800 600" enable-background="new 0 0 800 600" xml:space="preserve">
<g>
	<rect y="0" fill="#FFFFFF" width="800" height="600"/>
	<g>
		<g>
			<circle fill="#E6E7E8" cx="405.3" cy="313.7" r="88.7"/>
			<g>
				<polygon fill="#E6E7E8" points="614.4,355.5 575.2,316.3 480.1,316.3 480.1,311.1 577.3,311.1 618,351.8 				"/>
			</g>
			<g>
				<path fill="#E6E7E8" d="M621.6,369.9c-6,0-10.9-4.9-10.9-10.9c0-6,4.9-10.9,10.9-10.9s10.9,4.9,10.9,10.9
					C632.5,365,627.6,369.9,621.6,369.9z M621.6,353.3c-3.1,0-5.7,2.6-5.7,5.7s2.6,5.7,5.7,5.7c3.1,0,5.7-2.6,5.7-5.7
					S624.8,353.3,621.6,353.3z"/>
			</g>
			<g>
				<path fill="#E6E7E8" d="M638.2,265.5c-6,0-10.9-4.9-10.9-10.9c0-6,4.9-10.9,10.9-10.9s10.9,4.9,10.9,10.9
					C649.1,260.6,644.2,265.5,638.2,265.5z M638.2,248.8c-3.1,0-5.7,2.6-5.7,5.7s2.6,5.7,5.7,5.7s5.7-2.6,5.7-5.7
					S641.4,248.8,638.2,248.8z"/>
			</g>
			<g>
				<path fill="#E6E7E8" d="M405.3,81c-6,0-10.9-4.9-10.9-10.9s4.9-10.9,10.9-10.9c6,0,10.9,4.9,10.9,10.9S411.3,81,405.3,81z
					 M405.3,64.4c-3.1,0-5.7,2.6-5.7,5.7s2.6,5.7,5.7,5.7c3.1,0,5.7-2.6,5.7-5.7S408.5,64.4,405.3,64.4z"/>
			</g>
			<g>
				<path fill="#E6E7E8" d="M463.7,151c-6,0-10.9-4.9-10.9-10.9c0-6,4.9-10.9,10.9-10.9s10.9,4.9,10.9,10.9
					C474.6,146.2,469.7,151,463.7,151z M463.7,134.4c-3.1,0-5.7,2.6-5.7,5.7s2.6,5.7,5.7,5.7s5.7-2.6,5.7-5.7
					S466.9,134.4,463.7,134.4z"/>
			</g>
			<g>
				<path fill="#E6E7E8" d="M581.4,189.7c-6,0-10.9-4.9-10.9-10.9c0-6,4.9-10.9,10.9-10.9s10.9,4.9,10.9,10.9
					C592.3,184.8,587.4,189.7,581.4,189.7z M581.4,173.1c-3.1,0-5.7,2.6-5.7,5.7c0,3.1,2.6,5.7,5.7,5.7s5.7-2.6,5.7-5.7
					C587.1,175.7,584.5,173.1,581.4,173.1z"/>
			</g>
			<g>
				<path fill="#E6E7E8" d="M295.5,133.8c-6,0-10.9-4.9-10.9-10.9s4.9-10.9,10.9-10.9s10.9,4.9,10.9,10.9S301.5,133.8,295.5,133.8z
					 M295.5,117.2c-3.1,0-5.7,2.6-5.7,5.7s2.6,5.7,5.7,5.7s5.7-2.6,5.7-5.7S298.6,117.2,295.5,117.2z"/>
			</g>
			<g>
				<path fill="#E6E7E8" d="M236.2,181.2c-6,0-10.9-4.9-10.9-10.9c0-6,4.9-10.9,10.9-10.9c6,0,10.9,4.9,10.9,10.9
					C247.1,176.3,242.2,181.2,236.2,181.2z M236.2,164.6c-3.1,0-5.7,2.6-5.7,5.7s2.6,5.7,5.7,5.7c3.1,0,5.7-2.6,5.7-5.7
					S239.4,164.6,236.2,164.6z"/>
			</g>
			<g>
				<path fill="#E6E7E8" d="M161.8,324.6c-6,0-10.9-4.9-10.9-10.9c0-6,4.9-10.9,10.9-10.9c6,0,10.9,4.9,10.9,10.9
					C172.7,319.7,167.8,324.6,161.8,324.6z M161.8,308c-3.1,0-5.7,2.6-5.7,5.7s2.6,5.7,5.7,5.7c3.1,0,5.7-2.6,5.7-5.7
					S164.9,308,161.8,308z"/>
			</g>
			<g>
				<path fill="#E6E7E8" d="M209.1,358.5c-6,0-10.9-4.9-10.9-10.9s4.9-10.9,10.9-10.9c6,0,10.9,4.9,10.9,10.9
					S215.2,358.5,209.1,358.5z M209.1,341.9c-3.1,0-5.7,2.6-5.7,5.7s2.6,5.7,5.7,5.7s5.7-2.6,5.7-5.7S212.3,341.9,209.1,341.9z"/>
			</g>
			<g>
				<path fill="#E6E7E8" d="M235.1,277.4c-6,0-10.9-4.9-10.9-10.9c0-6,4.9-10.9,10.9-10.9c6,0,10.9,4.9,10.9,10.9
					C246,272.6,241.1,277.4,235.1,277.4z M235.1,260.8c-3.1,0-5.7,2.6-5.7,5.7s2.6,5.7,5.7,5.7s5.7-2.6,5.7-5.7
					S238.2,260.8,235.1,260.8z"/>
			</g>
			<g>
				<path fill="#E6E7E8" d="M237.9,474.5c-6,0-10.9-4.9-10.9-10.9c0-6,4.9-10.9,10.9-10.9c6,0,10.9,4.9,10.9,10.9
					C248.8,469.7,243.9,474.5,237.9,474.5z M237.9,457.9c-3.1,0-5.7,2.6-5.7,5.7s2.6,5.7,5.7,5.7c3.1,0,5.7-2.6,5.7-5.7
					S241,457.9,237.9,457.9z"/>
			</g>
			<g>
				<path fill="#E6E7E8" d="M344.9,532.9c-6,0-10.9-4.9-10.9-10.9c0-6,4.9-10.9,10.9-10.9c6,0,10.9,4.9,10.9,10.9
					C355.8,528,350.9,532.9,344.9,532.9z M344.9,516.3c-3.1,0-5.7,2.6-5.7,5.7c0,3.1,2.6,5.7,5.7,5.7c3.1,0,5.7-2.6,5.7-5.7
					C350.6,518.8,348,516.3,344.9,516.3z"/>
			</g>
			<g>
				<path fill="#E6E7E8" d="M421.8,534.4c-6,0-10.9-4.9-10.9-10.9s4.9-10.9,10.9-10.9s10.9,4.9,10.9,10.9S427.8,534.4,421.8,534.4z
					 M421.8,517.7c-3.1,0-5.7,2.6-5.7,5.7c0,3.1,2.6,5.7,5.7,5.7c3.1,0,5.7-2.6,5.7-5.7C427.5,520.3,424.9,517.7,421.8,517.7z"/>
			</g>
			<g>
				<path fill="#E6E7E8" d="M614.9,451.3c-6,0-10.9-4.9-10.9-10.9s4.9-10.9,10.9-10.9s10.9,4.9,10.9,10.9S620.9,451.3,614.9,451.3z
					 M614.9,434.7c-3.1,0-5.7,2.6-5.7,5.7s2.6,5.7,5.7,5.7s5.7-2.6,5.7-5.7S618,434.7,614.9,434.7z"/>
			</g>
			<g>
				<path fill="#E6E7E8" d="M459.8,507.8c-6,0-10.9-4.9-10.9-10.9c0-6,4.9-10.9,10.9-10.9s10.9,4.9,10.9,10.9
					C470.7,502.9,465.9,507.8,459.8,507.8z M459.8,491.2c-3.1,0-5.7,2.6-5.7,5.7s2.6,5.7,5.7,5.7c3.1,0,5.7-2.6,5.7-5.7
					S463,491.2,459.8,491.2z"/>
			</g>
			<g>
				<path fill="#E6E7E8" d="M540,466.2c-6,0-10.9-4.9-10.9-10.9c0-6,4.9-10.9,10.9-10.9s10.9,4.9,10.9,10.9
					C550.9,461.3,546,466.2,540,466.2z M540,449.6c-3.1,0-5.7,2.6-5.7,5.7s2.6,5.7,5.7,5.7s5.7-2.6,5.7-5.7S543.2,449.6,540,449.6z"
					/>
			</g>
			<g>
				<polygon fill="#E6E7E8" points="467,262.9 463.3,259.2 530.2,192.4 547.2,209.3 574.4,182.1 578.1,185.8 547.2,216.7 
					530.2,199.7 				"/>
			</g>
			<g>
				<rect x="402.7" y="78.4" fill="#E6E7E8" width="5.2" height="169.5"/>
			</g>
			<g>
				<polygon fill="#E6E7E8" points="363,274 309.4,220.4 281.4,220.4 239.7,178.6 243.4,175 283.6,215.2 311.5,215.2 366.7,270.3 
									"/>
			</g>
			<g>
				<rect x="170.1" y="311.1" fill="#E6E7E8" width="160.8" height="5.2"/>
			</g>
			<g>
				<polygon fill="#E6E7E8" points="424.4,515.2 419.2,515.2 419.2,470.3 402.7,453.8 402.7,389.1 407.9,389.1 407.9,451.7 
					424.4,468.1 				"/>
			</g>
			<g>
				
					<rect x="434.8" y="406.3" transform="matrix(0.7071 0.7071 -0.7071 0.7071 433.7456 -229.2731)" fill="#E6E7E8" width="117.7" height="5.2"/>
			</g>
			<g>
				<polygon fill="#E6E7E8" points="245.2,459.6 241.6,456 290.1,407.5 312.7,407.5 363,357.2 366.7,360.9 314.9,412.6 292.2,412.6 
									"/>
			</g>
			<g>
				<polygon fill="#E6E7E8" points="607,436.2 545.7,375 545.7,341.9 473.5,341.9 473.5,336.7 550.9,336.7 550.9,372.8 610.7,432.5 
									"/>
			</g>
			<g>
				<polygon fill="#E6E7E8" points="462.4,488.6 457.3,488.6 457.3,419 424.6,386.4 428.3,382.7 462.4,416.9 				"/>
			</g>
			<g>
				<polygon fill="#E6E7E8" points="347.5,513.7 342.3,513.7 342.3,459.2 374,427.5 374,370.4 379.2,370.4 379.2,429.6 347.5,461.4 
									"/>
			</g>
			<g>
				<polygon fill="#E6E7E8" points="514,292.1 449.3,292.1 449.3,286.9 511.9,286.9 546.8,252 629.9,252 629.9,257.1 548.9,257.1 
									"/>
			</g>
			<g>
				<polygon fill="#E6E7E8" points="423.6,256.4 419.9,252.7 461.1,211.5 461.1,145.5 466.3,145.5 466.3,213.7 				"/>
			</g>
			<g>
				<polygon fill="#E6E7E8" points="388.6,256.4 347.9,215.6 347.9,177.9 300,130.1 303.7,126.4 353.1,175.7 353.1,213.5 
					392.3,252.7 				"/>
			</g>
			<g>
				<polygon fill="#E6E7E8" points="329.1,298.2 300,269.1 241.5,269.1 241.5,263.9 302.2,263.9 332.8,294.5 				"/>
			</g>
			<g>
				<polygon fill="#E6E7E8" points="319.1,371.4 279.9,371.4 279.9,348.1 217.4,348.1 217.4,342.9 285.1,342.9 285.1,366.2 
					317,366.2 339.5,343.7 343.1,347.3 				"/>
			</g>
		</g>
		<g>
			<g>
				<path fill="#2C3E50" d="M599.4,516.2c0,0,2.3,4.2,4.6,7.1c1.8,2.4,9.3,5.9,8.6,7.7c-0.6,1.8-12.2,2.2-14.3-1.4
					c-3.5-6-5.3-12.8-5.3-12.8L599.4,516.2z"/>
				<path fill="#2C3E50" d="M573.4,453.7c0,0,11.5,14.5,18.4,30.9c6.9,16.5,11.1,36.1,11.1,36.1l-8.5,2.9c0,0-6.7-9.3-11.7-16.2
					c-5-6.9-3.8-15.1-8.5-19.3c-4.8-4.3-34.1-17.4-30.4-37.3L573.4,453.7z"/>
				<g>
					<path fill="#35495E" d="M609.6,455.1l-11.1,11.1c-0.5,0.5-1.4,0.5-1.9,0l0,0c-0.5-0.5-0.5-1.4,0-1.9l11.1-11.1L609.6,455.1z"/>
					<path fill="#26B99A" d="M609.8,451.1l53.4-53.4c0.5-0.5,1.4-0.5,1.9,0l0,0c0.5,0.5,0.5,1.4,0,1.9L611.7,453L609.8,451.1z"/>
					<path fill="#BDC3C7" d="M612.6,452.8l-3.3,3.3c-0.2,0.2-0.5,0.2-0.7,0l-1.9-1.9c-0.2-0.2-0.2-0.5,0-0.7l3.3-3.3
						c0.2-0.2,0.5-0.2,0.7,0l1.9,1.9C612.7,452.4,612.7,452.7,612.6,452.8z"/>
					<circle fill="#F0C419" cx="609.6" cy="453.2" r="0.6"/>
				</g>
				<path fill="#2C3E50" d="M544.5,516.6c0,0-4.1,3.9-4,6.9s6.3,9,5.1,10.4c-1.3,1.4-13.3-2.6-12.7-6.7s5.5-12.5,5.5-12.5
					L544.5,516.6z"/>
				<path fill="#C03A2B" d="M575.6,413l5.3,23.2l20.9,21.3l-1.9,2.8c0,0-25.7-8-31.7-15.6c-4.2-5.3-8.8-19.1-11.2-26.9
					c-1.8-5.7,2-11.8,7.9-12.6c0.1,0,0.2,0,0.3,0C570,404.9,574.5,408.2,575.6,413z"/>
				<polygon fill="#FDCAA1" points="567.9,392.1 563.5,403.9 571.8,406.8 574.4,396.9 				"/>
				<path fill="#35495E" d="M537.7,449.1c0,0-2.9,12,1.8,25.7s0.2,16.4-2.7,23.7c-2.9,7.2-4,22.9-4,22.9l8.8,2.3
					c0,0,15.1-14.6,19.6-33.1c4.5-18.4,4.7-37.5,4.7-37.5L537.7,449.1z"/>
				<path fill="#FDCAA1" d="M579.3,391c0,0,0.4,9.7-3.2,10.9c-3.6,1.2-8.5-2-8.3-10.9S578.9,380.7,579.3,391z"/>
				<path fill="#E64C3C" d="M573.4,453.7L577,417c0.6-6-3-11.7-8.7-13.7l0,0c-6.4-2.3-13.6,0.8-16.3,7c-4.2,9.5-10.2,24.1-14.2,38.7
					C537.7,449.1,555.8,455.3,573.4,453.7z"/>
				<path fill="#E64C3C" d="M565.2,421.9l-22.8,7.1l-19.7,22.5l-3-1.7c0,0,6-26.2,13.1-32.8c5-4.6,18.3-10.3,25.9-13.3
					c5.6-2.2,11.9,1,13.2,6.9c0,0.1,0,0.2,0.1,0.3C572.9,415.7,569.9,420.5,565.2,421.9z"/>
				<path fill="#FDCAA1" d="M522.8,451.5c0,0,1.7,2.1,0.7,2.7c-1.1,0.7-1.8,2.7-3.3,2.4c-1.5-0.3-5-4.7-0.4-6.8L522.8,451.5z"/>
				<path fill="#E57E25" d="M580.7,383.8c-1.1-0.9-2.1,0.6-3,0.9c-0.9,0.2-2.8-1.9-6.1-1.1c-3.3,0.7-3,3.1-3.3,3.4
					c-0.2,0.3-1.6,0.7-1.9,2.9s-0.7,5.9,0,6.3c0.7,0.4,2.6-1.4,3.3-2.5s-1-2.2,0-3.6s2.1,0.5,2.1,2.1s1,1.2,1.3-0.3
					c0.3-1.5-0.7-3.1,1.9-3.2s3.1,1.5,4.8,0.4C581.6,387.9,582.9,385.6,580.7,383.8z"/>
				<path fill="#E57E25" d="M573.2,391.1c0,0-0.3,4.7,0.7,5.9s4.1-1.4,5.4-0.4s-1.2,6.8-3.4,6.9c-2.2,0.1-4.2-3.3-4.4-5.7
					c-0.2-2.4,0.3-6.2,0.3-6.2L573.2,391.1z"/>
				<path fill="#FDCAA1" d="M601.8,457.6c0,0,1.5-1.2,3.4-0.5s2.3,1.8,1.9,2.8s-1.6,3.2-3.2,3.6c-1.6,0.4-4-3.1-4-3.1L601.8,457.6z"
					/>
				<g>
					<rect x="566" y="392" fill="#2C3E50" width="7.6" height="1.9"/>
					<path fill="#35495E" d="M582.4,390.7c0.3,1.5,0.3,3.1,0,4.6c-0.1,0.4-0.5,0.7-0.9,0.7h-7.2c-0.4,0-0.8-0.3-0.9-0.7
						c-0.3-1.5-0.3-3.1,0-4.6c0.1-0.4,0.5-0.7,0.9-0.7h7.2C581.9,389.9,582.3,390.2,582.4,390.7z"/>
					<path fill="#BDC3C7" d="M574.6,389.9h5.2v6.1h-5.2c-0.4,0-0.8-0.3-0.9-0.7c-0.3-1.5-0.3-3.1,0-4.6
						C573.8,390.2,574.2,389.9,574.6,389.9z"/>
					<path fill="#ECF0F1" d="M574.3,389.9h5.2v6.1h-5.2c-0.4,0-0.8-0.3-0.9-0.7c-0.3-1.5-0.3-3.1,0-4.6
						C573.5,390.2,573.8,389.9,574.3,389.9z"/>
					<path fill="#35495E" d="M575,392.2c0.1,0.5,0.1,1,0,1.5c-0.1,0.5-0.4,0.8-0.9,0.8h-1.2c-0.5,0-0.9-0.4-0.9-0.8
						c-0.1-0.5-0.1-1,0-1.5c0.1-0.5,0.4-0.8,0.9-0.8h1.2C574.6,391.4,575,391.7,575,392.2z"/>
				</g>
			</g>
			<g>
				<g>
					<path fill="#35495E" d="M190.4,455.1l11.1,11.1c0.5,0.5,1.4,0.5,1.9,0l0,0c0.5-0.5,0.5-1.4,0-1.9l-11.1-11.1L190.4,455.1z"/>
					<path fill="#3B97D3" d="M190.2,451.1l-53.4-53.4c-0.5-0.5-1.4-0.5-1.9,0l0,0c-0.5,0.5-0.5,1.4,0,1.9l53.4,53.4L190.2,451.1z"/>
					<path fill="#BDC3C7" d="M187.4,452.8l3.3,3.3c0.2,0.2,0.5,0.2,0.7,0l1.9-1.9c0.2-0.2,0.2-0.5,0-0.7l-3.3-3.3
						c-0.2-0.2-0.5-0.2-0.7,0l-1.9,1.9C187.3,452.4,187.3,452.7,187.4,452.8z"/>
					<circle fill="#F0C419" cx="190.4" cy="453.2" r="0.6"/>
				</g>
				<path fill="#2C3E50" d="M213.1,515.3c0,0,2.3,5.2,1,7.9s-9.3,5.9-8.6,7.7c0.6,1.8,13.2,2.7,14.3-1.4s-0.3-13.6-0.3-13.6
					L213.1,515.3z"/>
				<path fill="#2C3E50" d="M255.5,516.6c0,0,4.1,3.9,4,6.9s-6.3,9-5.1,10.4c1.3,1.4,13.3-2.6,12.7-6.7s-5.5-12.5-5.5-12.5
					L255.5,516.6z"/>
				<path fill="#2C3E50" d="M226.6,453.7c0,0-15.5,15.5-17.9,34.4c-2.4,18.9,4.2,35.8,4.2,35.8l8.6-1.5c0,0,2.5-9.5,5.1-20.8
					s-0.3-12,8.6-19.4s20.4-12.8,21.1-31.4L226.6,453.7z"/>
				<path fill="#F29C1F" d="M224.4,413l-5.3,23.2l-20.9,21.3l1.9,2.8c0,0,25.7-8,31.7-15.6c4.2-5.3,8.8-19.1,11.2-26.9
					c1.8-5.7-2-11.8-7.9-12.6c-0.1,0-0.2,0-0.3,0C230,404.9,225.5,408.2,224.4,413z"/>
				<polygon fill="#FDCAA1" points="232.1,392.1 236.5,403.9 228.2,406.8 225.6,396.9 				"/>
				<path fill="#35495E" d="M262.3,449.1c0,0,2.9,12-1.8,25.7c-4.8,13.7-0.2,16.4,2.7,23.7s4,22.9,4,22.9l-8.8,2.3
					c0,0-15.1-14.6-19.6-33.1c-4.5-18.4-4.7-37.5-4.7-37.5L262.3,449.1z"/>
				<path fill="#FDCAA1" d="M220.7,391c0,0-0.4,9.7,3.2,10.9c3.6,1.2,8.5-2,8.3-10.9C232,382.1,221.1,380.7,220.7,391z"/>
				<path fill="#F0C419" d="M226.6,453.7L223,417c-0.6-6,3-11.7,8.7-13.7h0c6.4-2.3,13.6,0.8,16.3,7c4.2,9.5,10.2,24.1,14.2,38.7
					C262.3,449.1,244.2,455.3,226.6,453.7z"/>
				<path fill="#F0C419" d="M225.6,413.6l-5.8,23.1l-21.4,20.8l1.8,2.9c0,0,25.8-7.4,32.1-14.8c4.4-5.2,9.3-18.8,11.9-26.6
					c1.9-5.7-1.7-11.8-7.6-12.8c-0.1,0-0.2,0-0.3,0C231.3,405.6,226.8,408.9,225.6,413.6z"/>
				<path fill="#FDCAA1" d="M198.3,457.6c0,0-2.2-1.6-2.8-0.5c-0.6,1.1-2.6,1.9-2.2,3.4s5,4.8,6.8,0L198.3,457.6z"/>
				<path fill="#35495E" d="M219.3,383.8c1.1-0.9,2.1,0.6,3,0.9c0.9,0.2,2.8-1.9,6.1-1.1c3.3,0.7,3,3.1,3.3,3.4
					c0.2,0.3,1.6,0.7,1.9,2.9s0.7,5.9,0,6.3c-0.7,0.4-2.6-1.4-3.3-2.5s1-2.2,0-3.6s-2.1,0.5-2.1,2.1s-1,1.2-1.3-0.3
					c-0.3-1.5,0.7-3.1-1.9-3.2c-2.7-0.1-3.1,1.5-4.8,0.4C218.4,387.9,217.1,385.6,219.3,383.8z"/>
				<g>
					<rect x="226.3" y="392" fill="#2C3E50" width="7.6" height="1.9"/>
					<path fill="#35495E" d="M217.6,390.7c-0.3,1.5-0.3,3.1,0,4.6c0.1,0.4,0.5,0.7,0.9,0.7h7.2c0.4,0,0.8-0.3,0.9-0.7
						c0.3-1.5,0.3-3.1,0-4.6c-0.1-0.4-0.5-0.7-0.9-0.7h-7.2C218,389.9,217.6,390.2,217.6,390.7z"/>
					<path fill="#BDC3C7" d="M225.3,389.9h-5.2v6.1h5.2c0.4,0,0.8-0.3,0.9-0.7c0.3-1.5,0.3-3.1,0-4.6
						C226.1,390.2,225.8,389.9,225.3,389.9z"/>
					<path fill="#ECF0F1" d="M225.7,389.9h-5.2v6.1h5.2c0.4,0,0.8-0.3,0.9-0.7c0.3-1.5,0.3-3.1,0-4.6
						C226.5,390.2,226.1,389.9,225.7,389.9z"/>
					<path fill="#35495E" d="M224.9,392.2c-0.1,0.5-0.1,1,0,1.5c0.1,0.5,0.4,0.8,0.9,0.8h1.2c0.5,0,0.9-0.4,0.9-0.8
						c0.1-0.5,0.1-1,0-1.5c-0.1-0.5-0.4-0.8-0.9-0.8h-1.2C225.4,391.4,225,391.7,224.9,392.2z"/>
				</g>
			</g>
		</g>
		<ellipse fill="#BDC3C7" cx="400" cy="534.2" rx="247.8" ry="6.5"/>
		<g>
			<g>
				<g>
					<g>
						<path fill="#221F1F" d="M493.4,214v36.9c0,3.6,2.9,6.5,6.5,6.5l0,0c3.6,0,6.5-2.9,6.5-6.5V214c0-3.6-2.9-6.5-6.5-6.5l0,0
							C496.4,207.4,493.4,210.4,493.4,214z"/>
						<path fill="#221F1F" d="M493.4,274.7v36.9c0,3.6,2.9,6.5,6.5,6.5l0,0c3.6,0,6.5-2.9,6.5-6.5v-36.9c0-3.6-2.9-6.5-6.5-6.5l0,0
							C496.4,268.1,493.4,271,493.4,274.7z"/>
					</g>
				</g>
				<path fill="#2F2F39" d="M298.2,184.8v325.6c0,13.1,10.7,23.8,23.8,23.8h154.2c13.1,0,23.8-10.7,23.8-23.8V184.8
					c0-13.1-10.7-23.8-23.8-23.8H322C308.8,161,298.2,171.7,298.2,184.8z"/>
				<path fill="#89D3E2" d="M478.6,172.9H430c0,5.9-4.8,10.7-10.7,10.7h-40.4c-5.9,0-10.7-4.8-10.7-10.7h-48.6
					c-6.6,0-11.9,5.3-11.9,11.9v325.6c0,6.6,5.3,11.9,11.9,11.9h159c6.6,0,11.9-5.3,11.9-11.9V184.8
					C490.5,178.3,485.1,172.9,478.6,172.9z"/>
			</g>
			<g>
				<g>
					<path fill="#BDC3C7" d="M532.8,464.2h-78.8V411c0-21.7,17.7-39.4,39.4-39.4s39.4,17.7,39.4,39.4V464.2z M464.8,453.5h57.4V411
						c0-15.8-12.9-28.7-28.7-28.7c-15.8,0-28.7,12.9-28.7,28.7V453.5z"/>
				</g>
				<polygon fill="#95A5A5" points="522.1,432.7 522.1,453.5 464.8,453.5 464.8,432.7 454.1,432.7 454.1,464.2 532.8,464.2 
					532.8,432.7 				"/>
				<path fill="#3B97D3" d="M442.1,447v58.5c0,4.9,4,8.9,8.9,8.9h84.9c4.9,0,8.9-4,8.9-8.9V447c0-4.9-4-8.9-8.9-8.9H451
					C446.1,438.1,442.1,442.1,442.1,447z"/>
				<path fill="#2980BA" d="M535.9,506.1H451c-4.9,0-8.9-4-8.9-8.9v8.3c0,4.9,4,8.9,8.9,8.9h84.9c4.9,0,8.9-4,8.9-8.9v-8.3
					C544.8,502.1,540.8,506.1,535.9,506.1z"/>
				<g>
					<path fill="#FFFFFF" d="M493.5,481.4c-0.5,0-0.8,0.4-0.8,0.8c0,6.2-1.6,11-3.3,14.5c-0.2,0.4,0,1,0.4,1.1c0,0,0.1,0,0.1,0
						c0.4,0.1,0.8,0,1-0.4c1.8-3.7,3.4-8.8,3.4-15.3C494.4,481.8,494,481.4,493.5,481.4z"/>
					<path fill="#FFFFFF" d="M496.4,477.6c-0.7-1-1.7-1.5-2.9-1.5c-3.5,0-3.7,2.9-4,6.6c-0.2,1.9-0.3,4.3-1,7
						c-0.5,2.2-1.2,4.1-1.9,5.6c-0.2,0.4-0.1,0.8,0.3,1c0,0,0,0,0.1,0c0.4,0.3,1,0.1,1.2-0.3c0.8-1.7,1.5-3.7,2.1-6
						c0.7-2.8,0.8-5.3,1-7.3c0.3-4.1,0.6-5,2.3-5c0.6,0,1.1,0.2,1.5,0.8c1.9,2.5,0.9,10-0.2,13.3c-0.7,2.1-1.5,4-2.3,5.6
						c-0.3,0.5,0.1,1.2,0.7,1.2c0,0,0.1,0,0.1,0c0.3-0.2,0.5-0.3,0.7-0.5c0.8-1.7,1.7-3.6,2.3-5.8
						C497.3,489.8,498.9,481,496.4,477.6z"/>
					<path fill="#FFFFFF" d="M501.4,487.2c0.6-6.7-0.3-11.1-2.6-13.6c-1.3-1.4-3.1-2.2-5.3-2.2c-6.4,0-7.1,5.5-8.3,15.4
						c-0.3,2.3-0.9,4.2-1.6,5.7c-0.1,0.3-0.1,0.6,0.1,0.9c0,0,0,0.1,0.1,0.1c0.4,0.4,1.1,0.4,1.3-0.2c0.8-1.7,1.5-3.8,1.8-6.3
						c1.2-10.4,1.9-14,6.6-14c1.7,0,3,0.5,4,1.6c1.9,2.1,2.6,6.2,2.1,12.3c-0.3,3.3-1.2,6.6-2.3,9.4c-0.3,0.7,0.5,1.4,1.1,1
						c0,0,0.1,0,0.1-0.1c0.2-0.1,0.3-0.2,0.4-0.4C500.2,494,501.2,490.6,501.4,487.2z"/>
					<path fill="#FFFFFF" d="M505,491.4c0.1-0.1,0.1-0.2,0.1-0.3c1.2-6.4,0.7-12.8-1.5-17.5c-1.8-3.7-4.5-5.8-7.8-6.2
						c-10.2-1.1-12.3,7.3-13.4,15.3c-0.3,2.3-0.9,4.2-1.5,5.6c-0.1,0.2-0.1,0.5,0,0.7c0,0,0,0.1,0,0.1c0.3,0.6,1.2,0.6,1.5,0
						c0.7-1.6,1.3-3.6,1.6-6.1c1.3-9.4,3.6-14.7,11.5-13.8c3.4,0.4,5.4,3,6.5,5.2c1.9,3.9,2.6,10,1.4,16.5
						C503.3,491.7,504.5,492.2,505,491.4C504.9,491.4,504.9,491.4,505,491.4z"/>
					<path fill="#FFFFFF" d="M505.6,469.1c-2.8-4.6-8.2-7.1-13.5-6.3c-5.5,0.9-9.7,5.2-11.2,11.5c-0.7,3.1-1.5,5.6-2.3,7.6
						c-0.1,0.2-0.1,0.3,0,0.5c0,0,0,0.1,0,0.1c0.2,0.8,1.3,0.8,1.6,0.1c0.8-2,1.7-4.6,2.4-7.9c1.4-5.7,4.9-9.4,9.9-10.2
						c4.6-0.7,9.4,1.5,11.8,5.5c1.8,3,2.9,6.5,3.5,10c0.2,0.9,1.5,0.9,1.6,0c0-0.1,0-0.1,0-0.2c0-0.1,0-0.2,0-0.3
						C508.6,475.9,507.5,472.3,505.6,469.1z"/>
					<path fill="#FFFFFF" d="M505.5,462.9c-3.1-2.9-9.2-5.5-15.3-4.1c-3.5,0.8-8.3,3.2-11.1,10.2c-0.6,1.4-1.1,2.7-1.6,3.8
						c0,0.1,0,0.2-0.1,0.3c0,0,0,0.1,0,0.1c0,0.9,1.2,1.1,1.6,0.3c0.5-1.2,1.1-2.5,1.7-4c2-5,5.4-8.1,9.9-9.1c5.3-1.2,11,1,13.8,3.7
						c1.5,1.4,2.7,3,3.7,4.6c0.5,0.8,1.6,0.3,1.5-0.6c0-0.1,0-0.1,0-0.2c0-0.1-0.1-0.2-0.1-0.3C508.3,466.1,507,464.4,505.5,462.9z"
						/>
					<path fill="#FFFFFF" d="M493.6,455.6c4.9,0,8.6,2,11.4,4.6c0.7,0.7,1.8-0.2,1.2-1.1c0-0.1-0.1-0.1-0.1-0.2
						c0-0.1-0.1-0.1-0.1-0.2c-3.1-2.8-7.1-4.9-12.4-4.9c-5.4,0-9.5,2.3-12.6,5.2c-0.1,0.1-0.1,0.1-0.1,0.2c0,0.1-0.1,0.1-0.1,0.2
						c-0.5,0.8,0.6,1.7,1.3,1C484.9,457.7,488.7,455.6,493.6,455.6z"/>
				</g>
			</g>
			<path fill="#BDC3C7" d="M299.9,186.8l-54.6,16.1c-3.8,1.1-6.4,4.6-6.4,8.6v36.7c0,38.3,26.3,71.7,63.5,80.7h0h0
				c37.3-9,63.5-42.3,63.5-80.7v-36.7c0-4-2.6-7.4-6.4-8.6l-54.6-16.1C303.3,186.3,301.5,186.3,299.9,186.8z"/>
			<path fill="#95A5A5" d="M302.4,318.3c-31.5-8.7-53.3-37.2-53.3-70.2v-35.8l53.3-15.7l53.3,15.7v35.8
				C355.7,281,333.9,309.5,302.4,318.3z"/>
			<path fill="#ECF0F1" d="M302.4,315.1c-29.6-8.6-50.3-36-50.3-67v-33.5l50.3-14.8l50.3,14.8v33.5
				C352.6,279.1,332,306.5,302.4,315.1z"/>
			<g>
				<g>
					<path fill="#BDC3C7" d="M317.5,259.6h-30.2v-20.4c0-8.3,6.8-15.1,15.1-15.1c8.3,0,15.1,6.8,15.1,15.1V259.6z M291.4,255.5h22
						v-16.3c0-6.1-4.9-11-11-11s-11,4.9-11,11V255.5z"/>
				</g>
				<polygon fill="#95A5A5" points="313.4,247.6 313.4,255.5 291.4,255.5 291.4,247.6 287.3,247.6 287.3,259.6 317.5,259.6 
					317.5,247.6 				"/>
				<path fill="#F0C419" d="M282.7,253v22.4c0,1.9,1.5,3.4,3.4,3.4h32.5c1.9,0,3.4-1.5,3.4-3.4V253c0-1.9-1.5-3.4-3.4-3.4h-32.5
					C284.2,249.6,282.7,251.2,282.7,253z"/>
				<path fill="#2F2F39" d="M306.4,261c0-2.2-1.8-4.1-4.1-4.1s-4.1,1.8-4.1,4.1c0,1.6,1,3.1,2.4,3.7v5.2c0,0.9,0.7,1.7,1.7,1.7l0,0
					c0.9,0,1.7-0.7,1.7-1.7v-5.2C305.5,264,306.4,262.6,306.4,261z"/>
			</g>
			<g>
				<g>
					<path fill="#3B97D3" d="M346.3,367L346.3,367c0,8.1,6.5,14.6,14.6,14.6h76.2c8.1,0,14.6-6.5,14.6-14.6v0
						c0-8.1-6.5-14.6-14.6-14.6H361C352.9,352.3,346.3,358.9,346.3,367z"/>
					<g>
						<path fill="#FFFFFF" d="M372.3,372.4c-0.6-0.2-1.2-0.5-1.7-1c-0.3-0.3-0.4-0.6-0.4-0.9c0-0.3,0.1-0.5,0.3-0.7
							c0.2-0.2,0.4-0.3,0.7-0.3c0.2,0,0.4,0.1,0.6,0.2c0.4,0.4,0.9,0.6,1.3,0.8c0.4,0.2,0.9,0.2,1.5,0.2c0.6,0,1.2-0.1,1.6-0.4
							c0.5-0.3,0.7-0.6,0.7-1c0-0.5-0.2-0.9-0.7-1.2c-0.4-0.3-1.1-0.5-2.1-0.6c-2.4-0.4-3.6-1.5-3.6-3.4c0-0.7,0.2-1.3,0.5-1.8
							c0.4-0.5,0.9-0.9,1.5-1.2c0.6-0.3,1.3-0.4,2.1-0.4c0.7,0,1.4,0.1,2,0.3c0.6,0.2,1.1,0.5,1.5,0.8c0.3,0.3,0.5,0.5,0.5,0.9
							c0,0.3-0.1,0.5-0.3,0.7c-0.2,0.2-0.4,0.3-0.7,0.3c-0.2,0-0.3,0-0.4-0.1c-0.3-0.2-0.7-0.4-1.2-0.6c-0.5-0.2-1-0.3-1.4-0.3
							c-0.7,0-1.2,0.1-1.6,0.4c-0.4,0.3-0.6,0.6-0.6,1c0,0.5,0.2,0.8,0.6,1.1c0.4,0.2,1,0.4,1.9,0.6c1,0.2,1.7,0.4,2.3,0.6
							c0.6,0.3,1,0.6,1.3,1.1c0.3,0.4,0.4,1,0.4,1.8c0,0.7-0.2,1.3-0.6,1.8c-0.4,0.5-0.9,0.9-1.6,1.2s-1.4,0.4-2.1,0.4
							C373.6,372.7,372.9,372.6,372.3,372.4z"/>
						<path fill="#FFFFFF" d="M382.4,372.3c-0.2,0.2-0.5,0.3-0.7,0.3c-0.3,0-0.5-0.1-0.7-0.3c-0.2-0.2-0.3-0.4-0.3-0.7v-9.6
							c0-0.3,0.1-0.5,0.3-0.7c0.2-0.2,0.5-0.3,0.8-0.3c0.3,0,0.5,0.1,0.7,0.3s0.3,0.4,0.3,0.7v9.6
							C382.7,371.8,382.6,372.1,382.4,372.3z"/>
						<path fill="#FFFFFF" d="M394.5,366.6c0.2,0.2,0.3,0.4,0.3,0.7v3.5c0,0.4-0.2,0.7-0.5,0.9c-1.1,0.7-2.3,1-3.6,1
							c-1.1,0-2.1-0.3-3-0.8c-0.9-0.5-1.7-1.3-2.2-2.2c-0.5-0.9-0.8-1.9-0.8-3c0-1.1,0.3-2.1,0.8-3c0.5-0.9,1.3-1.6,2.2-2.2
							c0.9-0.5,1.9-0.8,3-0.8c1.1,0,2.1,0.2,2.9,0.7c0.2,0.1,0.3,0.2,0.4,0.3c0.1,0.1,0.1,0.3,0.1,0.5c0,0.3-0.1,0.5-0.3,0.7
							c-0.2,0.2-0.4,0.3-0.7,0.3c-0.2,0-0.4,0-0.6-0.1c-0.6-0.3-1.2-0.4-1.9-0.4c-0.7,0-1.4,0.2-2,0.5s-1.1,0.8-1.4,1.5
							c-0.3,0.6-0.5,1.3-0.5,2c0,0.7,0.2,1.4,0.5,2c0.4,0.6,0.8,1.1,1.4,1.5c0.6,0.4,1.3,0.5,2,0.5c0.3,0,0.6,0,1-0.1
							c0.4-0.1,0.7-0.1,0.9-0.2v-2.2h-1.6c-0.3,0-0.5-0.1-0.7-0.3c-0.2-0.2-0.3-0.4-0.3-0.7c0-0.3,0.1-0.5,0.3-0.7
							c0.2-0.2,0.4-0.3,0.7-0.3h2.7C394.1,366.3,394.3,366.4,394.5,366.6z"/>
						<path fill="#FFFFFF" d="M406.3,361.2c0.2,0.2,0.3,0.4,0.3,0.7v9.7c0,0.3-0.1,0.5-0.3,0.7c-0.2,0.2-0.4,0.3-0.7,0.3
							c-0.2,0-0.3,0-0.5-0.1s-0.3-0.1-0.3-0.2l-6.1-7.8v7.1c0,0.3-0.1,0.5-0.3,0.7c-0.2,0.2-0.4,0.3-0.7,0.3c-0.3,0-0.5-0.1-0.7-0.3
							c-0.2-0.2-0.2-0.4-0.2-0.7v-9.7c0-0.3,0.1-0.5,0.3-0.7c0.2-0.2,0.4-0.3,0.7-0.3c0.2,0,0.3,0,0.5,0.1c0.2,0.1,0.3,0.2,0.4,0.3
							l6.1,7.7v-7.2c0-0.3,0.1-0.5,0.3-0.7c0.2-0.2,0.4-0.3,0.7-0.3S406.1,361,406.3,361.2z"/>
						<path fill="#FFFFFF" d="M415.5,372.3c-0.2,0.2-0.5,0.3-0.7,0.3c-0.3,0-0.5-0.1-0.7-0.3c-0.2-0.2-0.3-0.4-0.3-0.7v-9.6
							c0-0.3,0.1-0.5,0.3-0.7c0.2-0.2,0.5-0.3,0.8-0.3c0.3,0,0.5,0.1,0.7,0.3s0.3,0.4,0.3,0.7v9.6
							C415.8,371.8,415.7,372.1,415.5,372.3z"/>
						<path fill="#FFFFFF" d="M427.8,361.2c0.2,0.2,0.3,0.4,0.3,0.7v9.7c0,0.3-0.1,0.5-0.3,0.7c-0.2,0.2-0.4,0.3-0.7,0.3
							c-0.2,0-0.3,0-0.5-0.1s-0.3-0.1-0.3-0.2l-6.1-7.8v7.1c0,0.3-0.1,0.5-0.3,0.7c-0.2,0.2-0.4,0.3-0.7,0.3c-0.3,0-0.5-0.1-0.7-0.3
							c-0.2-0.2-0.2-0.4-0.2-0.7v-9.7c0-0.3,0.1-0.5,0.3-0.7s0.4-0.3,0.7-0.3c0.2,0,0.3,0,0.5,0.1c0.2,0.1,0.3,0.2,0.4,0.3l6.1,7.7
							v-7.2c0-0.3,0.1-0.5,0.3-0.7c0.2-0.2,0.4-0.3,0.7-0.3S427.6,361,427.8,361.2z"/>
					</g>
				</g>
				<g>
					<path fill="#FFFFFF" d="M346.3,328.3L346.3,328.3c0,8.1,6.5,14.6,14.6,14.6h76.2c8.1,0,14.6-6.5,14.6-14.6v0
						c0-8.1-6.5-14.6-14.6-14.6H361C352.9,313.7,346.3,320.2,346.3,328.3z"/>
					<g>
						<path fill="#2F2F39" d="M373.4,331.3c0.1,0.2,0.2,0.4,0.2,0.6c0,0.3-0.1,0.5-0.3,0.7c-0.2,0.2-0.4,0.3-0.7,0.3
							c-0.3,0-0.6-0.1-0.8-0.4l-3-3.9l-2.9,3.9c-0.2,0.3-0.5,0.5-0.8,0.5c-0.2,0-0.5-0.1-0.6-0.3c-0.2-0.2-0.3-0.4-0.3-0.6
							c0-0.2,0.1-0.5,0.2-0.7l3.2-4.3l-3.2-4.3c-0.1-0.2-0.2-0.4-0.2-0.6c0-0.3,0.1-0.5,0.3-0.7c0.2-0.2,0.4-0.3,0.7-0.3
							c0.3,0,0.6,0.1,0.8,0.4l2.9,3.9l2.9-3.8c0.1-0.2,0.2-0.3,0.4-0.4c0.1-0.1,0.3-0.1,0.4-0.1c0.2,0,0.5,0.1,0.6,0.3
							c0.2,0.2,0.3,0.4,0.3,0.6c0,0.2-0.1,0.4-0.2,0.6l-3.2,4.3L373.4,331.3z"/>
						<path fill="#2F2F39" d="M385.3,331.3c0.1,0.2,0.2,0.4,0.2,0.6c0,0.3-0.1,0.5-0.3,0.7c-0.2,0.2-0.4,0.3-0.7,0.3
							c-0.3,0-0.6-0.1-0.8-0.4l-3-3.9l-2.9,3.9c-0.2,0.3-0.5,0.5-0.8,0.5c-0.2,0-0.5-0.1-0.6-0.3c-0.2-0.2-0.3-0.4-0.3-0.6
							c0-0.2,0.1-0.5,0.2-0.7l3.2-4.3l-3.2-4.3c-0.1-0.2-0.2-0.4-0.2-0.6c0-0.3,0.1-0.5,0.3-0.7s0.4-0.3,0.7-0.3
							c0.3,0,0.6,0.1,0.8,0.4l2.9,3.9l2.9-3.8c0.1-0.2,0.2-0.3,0.4-0.4c0.1-0.1,0.3-0.1,0.4-0.1c0.2,0,0.5,0.1,0.6,0.3
							c0.2,0.2,0.3,0.4,0.3,0.6c0,0.2-0.1,0.4-0.2,0.6l-3.2,4.3L385.3,331.3z"/>
						<path fill="#2F2F39" d="M397.2,331.3c0.1,0.2,0.2,0.4,0.2,0.6c0,0.3-0.1,0.5-0.3,0.7c-0.2,0.2-0.4,0.3-0.7,0.3
							c-0.3,0-0.6-0.1-0.8-0.4l-3-3.9l-2.9,3.9c-0.2,0.3-0.5,0.5-0.8,0.5c-0.2,0-0.5-0.1-0.6-0.3c-0.2-0.2-0.3-0.4-0.3-0.6
							c0-0.2,0.1-0.5,0.2-0.7l3.2-4.3l-3.2-4.3c-0.1-0.2-0.2-0.4-0.2-0.6c0-0.3,0.1-0.5,0.3-0.7c0.2-0.2,0.4-0.3,0.7-0.3
							c0.3,0,0.6,0.1,0.8,0.4l2.9,3.9l2.9-3.8c0.1-0.2,0.2-0.3,0.4-0.4c0.1-0.1,0.3-0.1,0.4-0.1c0.2,0,0.5,0.1,0.6,0.3
							c0.2,0.2,0.3,0.4,0.3,0.6c0,0.2-0.1,0.4-0.2,0.6L394,327L397.2,331.3z"/>
						<path fill="#2F2F39" d="M409.2,331.3c0.1,0.2,0.2,0.4,0.2,0.6c0,0.3-0.1,0.5-0.3,0.7c-0.2,0.2-0.4,0.3-0.7,0.3
							c-0.3,0-0.6-0.1-0.8-0.4l-3-3.9l-2.9,3.9c-0.2,0.3-0.5,0.5-0.8,0.5c-0.2,0-0.5-0.1-0.6-0.3c-0.2-0.2-0.3-0.4-0.3-0.6
							c0-0.2,0.1-0.5,0.2-0.7l3.2-4.3l-3.2-4.3c-0.1-0.2-0.2-0.4-0.2-0.6c0-0.3,0.1-0.5,0.3-0.7s0.4-0.3,0.7-0.3
							c0.3,0,0.6,0.1,0.8,0.4l2.9,3.9l2.9-3.8c0.1-0.2,0.2-0.3,0.4-0.4c0.1-0.1,0.3-0.1,0.4-0.1c0.2,0,0.5,0.1,0.6,0.3
							c0.2,0.2,0.3,0.4,0.3,0.6c0,0.2-0.1,0.4-0.2,0.6l-3.2,4.3L409.2,331.3z"/>
						<path fill="#2F2F39" d="M421.1,331.3c0.1,0.2,0.2,0.4,0.2,0.6c0,0.3-0.1,0.5-0.3,0.7c-0.2,0.2-0.4,0.3-0.7,0.3
							c-0.3,0-0.6-0.1-0.8-0.4l-3-3.9l-2.9,3.9c-0.2,0.3-0.5,0.5-0.8,0.5c-0.2,0-0.5-0.1-0.6-0.3c-0.2-0.2-0.3-0.4-0.3-0.6
							c0-0.2,0.1-0.5,0.2-0.7l3.2-4.3l-3.2-4.3c-0.1-0.2-0.2-0.4-0.2-0.6c0-0.3,0.1-0.5,0.3-0.7c0.2-0.2,0.4-0.3,0.7-0.3
							c0.3,0,0.6,0.1,0.8,0.4l2.9,3.9l2.9-3.8c0.1-0.2,0.2-0.3,0.4-0.4c0.1-0.1,0.3-0.1,0.4-0.1c0.2,0,0.5,0.1,0.6,0.3
							c0.2,0.2,0.3,0.4,0.3,0.6c0,0.2-0.1,0.4-0.2,0.6l-3.2,4.3L421.1,331.3z"/>
						<path fill="#2F2F39" d="M424.1,335.3c-0.1-0.1-0.2-0.3-0.2-0.6c0-0.2,0.1-0.4,0.2-0.6s0.3-0.2,0.6-0.2h8.5
							c0.2,0,0.4,0.1,0.6,0.2s0.2,0.3,0.2,0.6c0,0.2-0.1,0.4-0.2,0.5c-0.1,0.1-0.3,0.2-0.6,0.2h-8.5
							C424.4,335.5,424.2,335.4,424.1,335.3z"/>
					</g>
				</g>
			</g>
		</g>
	</g>
</g>
</svg>
