<?xml version="1.0" encoding="utf-8"?>
<!-- Generator: Adobe Illustrator 18.0.0, SVG Export Plug-In . SVG Version: 6.00 Build 0)  -->
<!DOCTYPE svg PUBLIC "-//W3C//DTD SVG 1.1//EN" "http://www.w3.org/Graphics/SVG/1.1/DTD/svg11.dtd">
<svg version="1.1" id="Layer_1" xmlns="http://www.w3.org/2000/svg" xmlns:xlink="http://www.w3.org/1999/xlink" x="0px" y="0px"
	 width="800px" height="600px" viewBox="0 0 800 600" enable-background="new 0 0 800 600" xml:space="preserve">
<ellipse fill="#BDC3C7" cx="400" cy="534.2" rx="247.8" ry="6.5"/>
<g>
	<rect y="0" fill="#FFFFFF" width="800" height="600"/>
	<g>
		<circle fill="#E6E7E8" cx="405.3" cy="313.7" r="88.7"/>
		<g>
			<polygon fill="#E6E7E8" points="614.4,355.5 575.2,316.3 480.1,316.3 480.1,311.1 577.3,311.1 618,351.8 			"/>
		</g>
		<g>
			<path fill="#E6E7E8" d="M621.6,369.9c-6,0-10.9-4.9-10.9-10.9c0-6,4.9-10.9,10.9-10.9s10.9,4.9,10.9,10.9
				C632.5,365,627.6,369.9,621.6,369.9z M621.6,353.3c-3.1,0-5.7,2.6-5.7,5.7s2.6,5.7,5.7,5.7c3.1,0,5.7-2.6,5.7-5.7
				S624.8,353.3,621.6,353.3z"/>
		</g>
		<g>
			<path fill="#E6E7E8" d="M638.2,265.5c-6,0-10.9-4.9-10.9-10.9c0-6,4.9-10.9,10.9-10.9s10.9,4.9,10.9,10.9
				C649.1,260.6,644.2,265.5,638.2,265.5z M638.2,248.8c-3.1,0-5.7,2.6-5.7,5.7s2.6,5.7,5.7,5.7s5.7-2.6,5.7-5.7
				S641.4,248.8,638.2,248.8z"/>
		</g>
		<g>
			<path fill="#E6E7E8" d="M405.3,81c-6,0-10.9-4.9-10.9-10.9s4.9-10.9,10.9-10.9c6,0,10.9,4.9,10.9,10.9S411.3,81,405.3,81z
				 M405.3,64.4c-3.1,0-5.7,2.6-5.7,5.7s2.6,5.7,5.7,5.7c3.1,0,5.7-2.6,5.7-5.7S408.5,64.4,405.3,64.4z"/>
		</g>
		<g>
			<path fill="#E6E7E8" d="M463.7,151c-6,0-10.9-4.9-10.9-10.9c0-6,4.9-10.9,10.9-10.9s10.9,4.9,10.9,10.9
				C474.6,146.2,469.7,151,463.7,151z M463.7,134.4c-3.1,0-5.7,2.6-5.7,5.7s2.6,5.7,5.7,5.7s5.7-2.6,5.7-5.7
				S466.9,134.4,463.7,134.4z"/>
		</g>
		<g>
			<path fill="#E6E7E8" d="M581.4,189.7c-6,0-10.9-4.9-10.9-10.9c0-6,4.9-10.9,10.9-10.9s10.9,4.9,10.9,10.9
				C592.3,184.8,587.4,189.7,581.4,189.7z M581.4,173.1c-3.1,0-5.7,2.6-5.7,5.7c0,3.1,2.6,5.7,5.7,5.7s5.7-2.6,5.7-5.7
				C587.1,175.7,584.5,173.1,581.4,173.1z"/>
		</g>
		<g>
			<path fill="#E6E7E8" d="M295.5,133.8c-6,0-10.9-4.9-10.9-10.9s4.9-10.9,10.9-10.9s10.9,4.9,10.9,10.9S301.5,133.8,295.5,133.8z
				 M295.5,117.2c-3.1,0-5.7,2.6-5.7,5.7s2.6,5.7,5.7,5.7s5.7-2.6,5.7-5.7S298.6,117.2,295.5,117.2z"/>
		</g>
		<g>
			<path fill="#E6E7E8" d="M236.2,181.2c-6,0-10.9-4.9-10.9-10.9c0-6,4.9-10.9,10.9-10.9c6,0,10.9,4.9,10.9,10.9
				C247.1,176.3,242.2,181.2,236.2,181.2z M236.2,164.6c-3.1,0-5.7,2.6-5.7,5.7s2.6,5.7,5.7,5.7c3.1,0,5.7-2.6,5.7-5.7
				S239.4,164.6,236.2,164.6z"/>
		</g>
		<g>
			<path fill="#E6E7E8" d="M161.8,324.6c-6,0-10.9-4.9-10.9-10.9c0-6,4.9-10.9,10.9-10.9c6,0,10.9,4.9,10.9,10.9
				C172.7,319.7,167.8,324.6,161.8,324.6z M161.8,308c-3.1,0-5.7,2.6-5.7,5.7s2.6,5.7,5.7,5.7c3.1,0,5.7-2.6,5.7-5.7
				S164.9,308,161.8,308z"/>
		</g>
		<g>
			<path fill="#E6E7E8" d="M209.1,358.5c-6,0-10.9-4.9-10.9-10.9s4.9-10.9,10.9-10.9c6,0,10.9,4.9,10.9,10.9
				S215.2,358.5,209.1,358.5z M209.1,341.9c-3.1,0-5.7,2.6-5.7,5.7s2.6,5.7,5.7,5.7s5.7-2.6,5.7-5.7S212.3,341.9,209.1,341.9z"/>
		</g>
		<g>
			<path fill="#E6E7E8" d="M235.1,277.4c-6,0-10.9-4.9-10.9-10.9c0-6,4.9-10.9,10.9-10.9c6,0,10.9,4.9,10.9,10.9
				C246,272.6,241.1,277.4,235.1,277.4z M235.1,260.8c-3.1,0-5.7,2.6-5.7,5.7s2.6,5.7,5.7,5.7s5.7-2.6,5.7-5.7
				S238.2,260.8,235.1,260.8z"/>
		</g>
		<g>
			<path fill="#E6E7E8" d="M237.9,474.5c-6,0-10.9-4.9-10.9-10.9c0-6,4.9-10.9,10.9-10.9c6,0,10.9,4.9,10.9,10.9
				C248.8,469.7,243.9,474.5,237.9,474.5z M237.9,457.9c-3.1,0-5.7,2.6-5.7,5.7s2.6,5.7,5.7,5.7c3.1,0,5.7-2.6,5.7-5.7
				S241,457.9,237.9,457.9z"/>
		</g>
		<g>
			<path fill="#E6E7E8" d="M344.9,532.9c-6,0-10.9-4.9-10.9-10.9c0-6,4.9-10.9,10.9-10.9c6,0,10.9,4.9,10.9,10.9
				C355.8,528,350.9,532.9,344.9,532.9z M344.9,516.3c-3.1,0-5.7,2.6-5.7,5.7c0,3.1,2.6,5.7,5.7,5.7c3.1,0,5.7-2.6,5.7-5.7
				C350.6,518.8,348,516.3,344.9,516.3z"/>
		</g>
		<g>
			<path fill="#E6E7E8" d="M421.8,534.4c-6,0-10.9-4.9-10.9-10.9s4.9-10.9,10.9-10.9s10.9,4.9,10.9,10.9S427.8,534.4,421.8,534.4z
				 M421.8,517.7c-3.1,0-5.7,2.6-5.7,5.7c0,3.1,2.6,5.7,5.7,5.7c3.1,0,5.7-2.6,5.7-5.7C427.5,520.3,424.9,517.7,421.8,517.7z"/>
		</g>
		<g>
			<path fill="#E6E7E8" d="M614.9,451.3c-6,0-10.9-4.9-10.9-10.9s4.9-10.9,10.9-10.9s10.9,4.9,10.9,10.9S620.9,451.3,614.9,451.3z
				 M614.9,434.7c-3.1,0-5.7,2.6-5.7,5.7s2.6,5.7,5.7,5.7s5.7-2.6,5.7-5.7S618,434.7,614.9,434.7z"/>
		</g>
		<g>
			<path fill="#E6E7E8" d="M459.8,507.8c-6,0-10.9-4.9-10.9-10.9c0-6,4.9-10.9,10.9-10.9s10.9,4.9,10.9,10.9
				C470.7,502.9,465.9,507.8,459.8,507.8z M459.8,491.2c-3.1,0-5.7,2.6-5.7,5.7s2.6,5.7,5.7,5.7c3.1,0,5.7-2.6,5.7-5.7
				S463,491.2,459.8,491.2z"/>
		</g>
		<g>
			<path fill="#E6E7E8" d="M540,466.2c-6,0-10.9-4.9-10.9-10.9c0-6,4.9-10.9,10.9-10.9s10.9,4.9,10.9,10.9
				C550.9,461.3,546,466.2,540,466.2z M540,449.6c-3.1,0-5.7,2.6-5.7,5.7s2.6,5.7,5.7,5.7s5.7-2.6,5.7-5.7S543.2,449.6,540,449.6z"
				/>
		</g>
		<g>
			<polygon fill="#E6E7E8" points="467,262.9 463.3,259.2 530.2,192.4 547.2,209.3 574.4,182.1 578.1,185.8 547.2,216.7 
				530.2,199.7 			"/>
		</g>
		<g>
			<rect x="402.7" y="78.4" fill="#E6E7E8" width="5.2" height="169.5"/>
		</g>
		<g>
			<polygon fill="#E6E7E8" points="363,274 309.4,220.4 281.4,220.4 239.7,178.6 243.4,175 283.6,215.2 311.5,215.2 366.7,270.3 			
				"/>
		</g>
		<g>
			<rect x="170.1" y="311.1" fill="#E6E7E8" width="160.8" height="5.2"/>
		</g>
		<g>
			<polygon fill="#E6E7E8" points="424.4,515.2 419.2,515.2 419.2,470.3 402.7,453.8 402.7,389.1 407.9,389.1 407.9,451.7 
				424.4,468.1 			"/>
		</g>
		<g>
			
				<rect x="434.8" y="406.3" transform="matrix(0.7071 0.7071 -0.7071 0.7071 433.7457 -229.2731)" fill="#E6E7E8" width="117.7" height="5.2"/>
		</g>
		<g>
			<polygon fill="#E6E7E8" points="245.2,459.6 241.6,456 290.1,407.5 312.7,407.5 363,357.2 366.7,360.9 314.9,412.6 292.2,412.6 
							"/>
		</g>
		<g>
			<polygon fill="#E6E7E8" points="607,436.2 545.7,375 545.7,341.9 473.5,341.9 473.5,336.7 550.9,336.7 550.9,372.8 610.7,432.5 
							"/>
		</g>
		<g>
			<polygon fill="#E6E7E8" points="462.4,488.6 457.3,488.6 457.3,419 424.6,386.4 428.3,382.7 462.4,416.9 			"/>
		</g>
		<g>
			<polygon fill="#E6E7E8" points="347.5,513.7 342.3,513.7 342.3,459.2 374,427.5 374,370.4 379.2,370.4 379.2,429.6 347.5,461.4 
							"/>
		</g>
		<g>
			<polygon fill="#E6E7E8" points="514,292.1 449.3,292.1 449.3,286.9 511.9,286.9 546.8,252 629.9,252 629.9,257.1 548.9,257.1 			
				"/>
		</g>
		<g>
			<polygon fill="#E6E7E8" points="423.6,256.4 419.9,252.7 461.1,211.5 461.1,145.5 466.3,145.5 466.3,213.7 			"/>
		</g>
		<g>
			<polygon fill="#E6E7E8" points="388.6,256.4 347.9,215.6 347.9,177.9 300,130.1 303.7,126.4 353.1,175.7 353.1,213.5 
				392.3,252.7 			"/>
		</g>
		<g>
			<polygon fill="#E6E7E8" points="329.1,298.2 300,269.1 241.5,269.1 241.5,263.9 302.2,263.9 332.8,294.5 			"/>
		</g>
		<g>
			<polygon fill="#E6E7E8" points="319.1,371.4 279.9,371.4 279.9,348.1 217.4,348.1 217.4,342.9 285.1,342.9 285.1,366.2 
				317,366.2 339.5,343.7 343.1,347.3 			"/>
		</g>
	</g>
	<g>
		<path fill="#2F2F39" d="M236.8,144.2c0,0,8.4,0,17,7c8.5,6.9,10.8,15,4.8,17c-6,2-16.9-5.4-16.9-5.4S238,154.8,236.8,144.2z"/>
		<path fill="#2F2F39" d="M197.1,154.2c-5.3,3.7-12.7,11.3-13.3,21.9c-0.7,12.7,5.1,16.2,11.2,17.7c7.4,1.9,13.2-7.1,13.2-7.1
			s-1.4-3-5.6-3s-5.1,0.9-5.5-1.6s6.2-10.9,6.2-10.9S200.3,160.3,197.1,154.2z"/>
		<path fill="#2F2F39" d="M197.1,154.2c0,0,16.4-10.8,39.6-10l9.5,35.3c0,0-9.5,15.5-29.3,18.8C217,198.2,203,175,197.1,154.2z"/>
		<g>
			<path fill="#95A5A5" d="M444.3,467.4v-19.2h-88.3v19.2c0,27-17.6,50.9-43.3,59h174.9C461.9,518.3,444.3,494.4,444.3,467.4z"/>
			<path fill="#BDC3C7" d="M295.8,532.2v2h208.8v-2c0-3.3-2.6-5.9-5.9-5.9h-197C298.4,526.3,295.8,529,295.8,532.2z"/>
			<rect x="356.1" y="448.1" fill="#7F8C8D" width="88.3" height="19.2"/>
			<path fill="#BDC3C7" d="M199.7,197.2v249.8c0,6.5,5.3,11.8,11.8,11.8h377.2c6.5,0,11.8-5.3,11.8-11.8V197.2
				c0-6.5-5.3-11.8-11.8-11.8H211.6C205,185.4,199.7,190.7,199.7,197.2z"/>
			<rect x="211.6" y="197.2" fill="#FFFFFF" width="377.2" height="217.5"/>
			<path fill="#35495E" d="M380.9,436.1L380.9,436.1c0,4.5,3.6,8.1,8.1,8.1h22.4c4.5,0,8.1-3.6,8.1-8.1v0c0-4.5-3.6-8.1-8.1-8.1H389
				C384.5,428,380.9,431.6,380.9,436.1z"/>
		</g>
		<g>
			<path fill="#338BA3" d="M237.5,172.4v187c0,9.7,7.8,17.5,17.5,17.5h290.4c9.7,0,17.5-7.8,17.5-17.5v-187
				c0-9.7-7.8-17.5-17.5-17.5H255C245.3,154.9,237.5,162.8,237.5,172.4z"/>
			<g>
				<g>
					<rect x="385.2" y="206.3" fill="#045369" width="150.5" height="12.2"/>
					<g>
						<g>
							<rect x="385.2" y="246.3" fill="#045369" width="150.5" height="6.1"/>
							<rect x="385.2" y="261.8" fill="#045369" width="150.5" height="6.1"/>
							<rect x="385.2" y="277.4" fill="#045369" width="150.5" height="6.1"/>
							<rect x="385.2" y="292.9" fill="#045369" width="75.2" height="6.1"/>
						</g>
					</g>
				</g>
				<path fill="#F0C419" d="M501.8,318.4v22.2c0,3.2,2.6,5.8,5.8,5.8h22.2c3.2,0,5.8-2.6,5.8-5.8v-22.2c0-3.2-2.6-5.8-5.8-5.8h-22.2
					C504.5,312.6,501.8,315.2,501.8,318.4z"/>
				<g>
					<g>
						<rect x="264.7" y="185.4" fill="#FFFFFF" width="106.5" height="134.5"/>
						<g>
							<defs>
								<rect id="SVGID_1_" x="264.7" y="185.4" width="106.5" height="134.5"/>
							</defs>
							<clipPath id="SVGID_2_">
								<use xlink:href="#SVGID_1_"  overflow="visible"/>
							</clipPath>
							<g clip-path="url(#SVGID_2_)">
								<path fill="#FDCAA1" d="M380.6,284.1c-10.7-8.5-38.8-5.5-45.2-12.8c-6.4-7.2-6.4-25.1-6.4-25.1H318h-11.1
									c0,0,0,17.9-6.4,25.1c-6.4,7.2-34.5,4.3-45.2,12.8c-10.7,8.5-11.1,36.2-11.1,36.2H318h73.7
									C391.7,320.3,391.2,292.6,380.6,284.1z"/>
								<path fill="#F8A076" d="M329.9,256.4c-0.8-5.5-0.9-10.2-0.9-10.2H318h-11.1c0,0,0,4.7-0.9,10.2c3.8,3.1,8,4.8,11.9,4.8
									C321.9,261.2,326.1,259.5,329.9,256.4z"/>
								<path fill="#26B99A" d="M380.6,284.1c-8.3-6.7-30.2-6.3-39.2-9.3c-5,7.6-13.6,12.7-23.4,12.7c-9.8,0-18.4-5.1-23.4-12.7
									c-9,3-30.9,2.6-39.2,9.3c-10.7,8.5-11.1,36.2-11.1,36.2H318h73.7C391.7,320.3,391.2,292.6,380.6,284.1z"/>
								<path fill="#FDCAA1" d="M318,204.6c-14.3,0-16.6,8.8-16.6,24.7c0,15.9,9,25.1,16.6,25.1c7.6,0,16.6-9.2,16.6-25.1
									C334.5,213.4,332.3,204.6,318,204.6z"/>
								<g>
									<path fill="#E57E25" d="M305.8,195.9c-4.1,0-8.6,6.1-5.8,12.4s11.7,7.9,17.9,6.2c4.3-1.2,10-4.3,11.9-0.9
										c1.9,3.4,4,22.6,4,22.6s4.6-4.9,2.4-24.5c-1.2-10.2-7.5-7-7.5-7s-3.6-4.5-7.9-4.3c-4.3,0.2-10.8,3.5-11.7,2.6
										C307.7,201.5,309.6,195.9,305.8,195.9z"/>
									<path fill="#E57E25" d="M307.5,204.6c0,0-5.8-3.1-7.5,7c-3.1,19.6,2,24.5,2,24.5s2.5-19.2,4.4-22.6c0.6-1,1.5-1.5,2.6-1.5
										L307.5,204.6z"/>
								</g>
								<path fill="#FDCAA1" d="M331.5,230c0,0,2.1-7.5,5.5-5.3s0.6,10-5.5,10.2V230z"/>
								<path fill="#FDCAA1" d="M304.9,230c0,0-2.1-7.5-5.5-5.3s-0.6,10,5.5,10.2V230z"/>
							</g>
						</g>
					</g>
					<rect x="264.7" y="334.2" fill="#FFFFFF" width="106.5" height="12.2"/>
				</g>
			</g>
		</g>
		<g>
			<g>
				<path fill="#BDC3C7" d="M258.3,403.1h-93.5V340c0-25.8,21-46.8,46.8-46.8s46.8,21,46.8,46.8V403.1z M177.5,390.3h68.1V340
					c0-18.8-15.3-34.1-34.1-34.1s-34.1,15.3-34.1,34.1V390.3z"/>
			</g>
			<polygon fill="#95A5A5" points="245.6,365.7 245.6,390.3 177.5,390.3 177.5,365.7 164.8,365.7 164.8,403.1 258.3,403.1 
				258.3,365.7 			"/>
			<path fill="#F0C419" d="M150.6,382.7v69.5c0,5.9,4.7,10.6,10.6,10.6h100.8c5.9,0,10.6-4.7,10.6-10.6v-69.5
				c0-5.9-4.7-10.6-10.6-10.6H161.2C155.3,372.1,150.6,376.8,150.6,382.7z"/>
			<path fill="#2F2F39" d="M224.1,407.2c0-6.9-5.6-12.6-12.6-12.6c-6.9,0-12.6,5.6-12.6,12.6c0,5.1,3,9.5,7.4,11.4v16
				c0,2.9,2.3,5.2,5.2,5.2h0c2.9,0,5.2-2.3,5.2-5.2v-16C221.1,416.7,224.1,412.3,224.1,407.2z"/>
			<path fill="#F29C1F" d="M261.9,452.9H161.2c-5.9,0-10.6-4.7-10.6-10.6v9.9c0,5.9,4.7,10.6,10.6,10.6h100.8
				c5.9,0,10.6-4.7,10.6-10.6v-9.9C272.5,448.1,267.8,452.9,261.9,452.9z"/>
		</g>
		<g>
			<circle fill="#BDC3C7" cx="588.8" cy="197.2" r="69.6"/>
			<circle fill="#95A5A5" cx="588.8" cy="197.2" r="56.7"/>
			<circle fill="#ECF0F1" cx="588.8" cy="197.2" r="53.2"/>
			<path fill="#26B99A" d="M621.4,169.7l-40,40l-25.2-25.2c-1.9-1.9-4.9-1.9-6.8,0L546,188c-1.9,1.9-1.9,4.9,0,6.8l28.6,28.6
				c3.7,3.7,9.8,3.7,13.6,0l43.4-43.4c1.9-1.9,1.9-4.9,0-6.8l-3.4-3.4C626.3,167.9,623.3,167.9,621.4,169.7z"/>
		</g>
		<g>
			<path fill="#F29C1F" d="M195.5,520.8h-31.7c-1.7,0-3.1,1.4-3.1,3.1l0,0c0,1.7,1.4,3.1,3.1,3.1h31.7c1.7,0,3.1-1.4,3.1-3.1l0,0
				C198.6,522.2,197.2,520.8,195.5,520.8z"/>
			<rect x="165.4" y="503.8" fill="#F29C1F" width="28.5" height="20.1"/>
			<path fill="#F0C419" d="M327.1,503.8c0-16.8-13.6-30.5-30.5-30.5s-30.5,13.6-30.5,30.5c0,16.8,13.6,30.5,30.5,30.5
				S327.1,520.6,327.1,503.8z M279.4,503.8c0-9.5,7.7-17.3,17.3-17.3c9.5,0,17.3,7.7,17.3,17.3s-7.7,17.3-17.3,17.3
				C287.1,521,279.4,513.3,279.4,503.8z"/>
			<path fill="#F0C419" d="M272.2,497.5H156.8c-3.4,0-6.2,2.8-6.2,6.2v0c0,3.4,2.8,6.2,6.2,6.2h115.4V497.5z"/>
			<g>
				<path fill="#F6D87F" d="M183.8,499.9h-25.3c-1.1,0-1.9,0.9-1.9,1.9v0c0,1.1,0.9,1.9,1.9,1.9h25.3c1.1,0,1.9-0.9,1.9-1.9v0
					C185.7,500.8,184.9,499.9,183.8,499.9z"/>
				<path fill="#F6D87F" d="M198.6,499.9h-6.2c-1.1,0-1.9,0.9-1.9,1.9v0c0,1.1,0.9,1.9,1.9,1.9h6.2c1.1,0,1.9-0.9,1.9-1.9v0
					C200.5,500.8,199.6,499.9,198.6,499.9z"/>
			</g>
		</g>
		<g>
			<g>
				<path fill="#2C3E50" d="M599.4,516.2c0,0,2.3,4.2,4.6,7.1c1.8,2.4,9.3,5.9,8.6,7.7c-0.6,1.8-12.2,2.2-14.3-1.4
					c-3.5-6-5.3-12.8-5.3-12.8L599.4,516.2z"/>
				<path fill="#2C3E50" d="M573.4,453.7c0,0,11.5,14.5,18.4,30.9c6.9,16.5,11.1,36.1,11.1,36.1l-8.5,2.9c0,0-6.7-9.3-11.7-16.2
					c-5-6.9-3.8-15.1-8.5-19.3c-4.8-4.3-34.1-17.4-30.4-37.3L573.4,453.7z"/>
				<g>
					<path fill="#35495E" d="M609.6,455.1l-11.1,11.1c-0.5,0.5-1.4,0.5-1.9,0l0,0c-0.5-0.5-0.5-1.4,0-1.9l11.1-11.1L609.6,455.1z"/>
					<path fill="#89D3E2" d="M609.8,451.1l53.4-53.4c0.5-0.5,1.4-0.5,1.9,0l0,0c0.5,0.5,0.5,1.4,0,1.9L611.7,453L609.8,451.1z"/>
					<path fill="#BDC3C7" d="M612.6,452.8l-3.3,3.3c-0.2,0.2-0.5,0.2-0.7,0l-1.9-1.9c-0.2-0.2-0.2-0.5,0-0.7l3.3-3.3
						c0.2-0.2,0.5-0.2,0.7,0l1.9,1.9C612.7,452.4,612.7,452.7,612.6,452.8z"/>
					<circle fill="#F0C419" cx="609.6" cy="453.2" r="0.6"/>
				</g>
				<path fill="#2C3E50" d="M544.5,516.6c0,0-4.1,3.9-4,6.9s6.3,9,5.1,10.4c-1.3,1.4-13.3-2.6-12.7-6.7s5.5-12.5,5.5-12.5
					L544.5,516.6z"/>
				<path fill="#C03A2B" d="M575.6,413l5.3,23.2l20.9,21.3l-1.9,2.8c0,0-25.7-8-31.7-15.6c-4.2-5.3-8.8-19.1-11.2-26.9
					c-1.8-5.7,2-11.8,7.9-12.6c0.1,0,0.2,0,0.3,0C570,404.9,574.5,408.2,575.6,413z"/>
				<polygon fill="#FDCAA1" points="567.9,392.1 563.5,403.9 571.8,406.8 574.4,396.9 				"/>
				<path fill="#35495E" d="M537.7,449.1c0,0-2.9,12,1.8,25.7s0.2,16.4-2.7,23.7c-2.9,7.2-4,22.9-4,22.9l8.8,2.3
					c0,0,15.1-14.6,19.6-33.1c4.5-18.4,4.7-37.5,4.7-37.5L537.7,449.1z"/>
				<path fill="#FDCAA1" d="M579.3,391c0,0,0.4,9.7-3.2,10.9c-3.6,1.2-8.5-2-8.3-10.9S578.9,380.7,579.3,391z"/>
				<path fill="#E64C3C" d="M573.4,453.7L577,417c0.6-6-3-11.7-8.7-13.7l0,0c-6.4-2.3-13.6,0.8-16.3,7c-4.2,9.5-10.2,24.1-14.2,38.7
					C537.7,449.1,555.8,455.3,573.4,453.7z"/>
				<path fill="#E64C3C" d="M565.2,421.9l-22.8,7.1l-19.7,22.5l-3-1.7c0,0,6-26.2,13.1-32.8c5-4.6,18.3-10.3,25.9-13.3
					c5.6-2.2,11.9,1,13.2,6.9c0,0.1,0,0.2,0.1,0.3C572.9,415.7,569.9,420.5,565.2,421.9z"/>
				<path fill="#FDCAA1" d="M522.8,451.5c0,0,1.7,2.1,0.7,2.7c-1.1,0.7-1.8,2.7-3.3,2.4c-1.5-0.3-5-4.7-0.4-6.8L522.8,451.5z"/>
				<path fill="#E57E25" d="M580.7,383.8c-1.1-0.9-2.1,0.6-3,0.9c-0.9,0.2-2.8-1.9-6.1-1.1c-3.3,0.7-3,3.1-3.3,3.4
					c-0.2,0.3-1.6,0.7-1.9,2.9s-0.7,5.9,0,6.3c0.7,0.4,2.6-1.4,3.3-2.5s-1-2.2,0-3.6s2.1,0.5,2.1,2.1s1,1.2,1.3-0.3
					c0.3-1.5-0.7-3.1,1.9-3.2s3.1,1.5,4.8,0.4C581.6,387.9,582.9,385.6,580.7,383.8z"/>
				<path fill="#E57E25" d="M573.2,391.1c0,0-0.3,4.7,0.7,5.9s4.1-1.4,5.4-0.4s-1.2,6.8-3.4,6.9c-2.2,0.1-4.2-3.3-4.4-5.7
					c-0.2-2.4,0.3-6.2,0.3-6.2L573.2,391.1z"/>
				<path fill="#FDCAA1" d="M601.8,457.6c0,0,1.5-1.2,3.4-0.5s2.3,1.8,1.9,2.8s-1.6,3.2-3.2,3.6c-1.6,0.4-4-3.1-4-3.1L601.8,457.6z"
					/>
				<g>
					<rect x="566" y="392" fill="#2C3E50" width="7.6" height="1.9"/>
					<path fill="#35495E" d="M582.4,390.7c0.3,1.5,0.3,3.1,0,4.6c-0.1,0.4-0.5,0.7-0.9,0.7h-7.2c-0.4,0-0.8-0.3-0.9-0.7
						c-0.3-1.5-0.3-3.1,0-4.6c0.1-0.4,0.5-0.7,0.9-0.7h7.2C581.9,389.9,582.3,390.2,582.4,390.7z"/>
					<path fill="#BDC3C7" d="M574.6,389.9h5.2v6.1h-5.2c-0.4,0-0.8-0.3-0.9-0.7c-0.3-1.5-0.3-3.1,0-4.6
						C573.8,390.2,574.2,389.9,574.6,389.9z"/>
					<path fill="#ECF0F1" d="M574.3,389.9h5.2v6.1h-5.2c-0.4,0-0.8-0.3-0.9-0.7c-0.3-1.5-0.3-3.1,0-4.6
						C573.5,390.2,573.8,389.9,574.3,389.9z"/>
					<path fill="#35495E" d="M575,392.2c0.1,0.5,0.1,1,0,1.5c-0.1,0.5-0.4,0.8-0.9,0.8h-1.2c-0.5,0-0.9-0.4-0.9-0.8
						c-0.1-0.5-0.1-1,0-1.5c0.1-0.5,0.4-0.8,0.9-0.8h1.2C574.6,391.4,575,391.7,575,392.2z"/>
				</g>
			</g>
			<g>
				<path fill="#3B97D3" d="M529,491.5c-20-5.8-34-24.3-34-45.2v-17.4c0-3.1,2-5.8,5-6.7l28.9-8.5l28.9,8.5c3,0.9,5,3.6,5,6.7v17.4
					C563,467.2,549.1,485.7,529,491.5z"/>
				<path fill="#2980BA" d="M529,486.2c-20-5.8-34-24.3-34-45.2v5.3c0,20.9,13.9,39.4,34,45.2c20-5.8,34-24.3,34-45.2V441
					C563,461.9,549.1,480.4,529,486.2z"/>
				<g>
					<path fill="#FFFFFF" d="M529.1,456.1c-0.5,0-0.9,0.4-0.9,0.9c0,6.4-1.6,11.4-3.4,15c-0.2,0.4,0,1,0.5,1.2c0,0,0.1,0,0.1,0
						c0.4,0.1,0.9,0,1-0.4c1.9-3.8,3.5-9,3.5-15.8C530,456.5,529.6,456.1,529.1,456.1z"/>
					<path fill="#FFFFFF" d="M532.1,452.1c-0.7-1-1.8-1.5-3-1.5c-3.6,0-3.8,3-4.1,6.8c-0.2,2-0.4,4.5-1,7.2c-0.5,2.3-1.2,4.2-2,5.8
						c-0.2,0.4-0.1,0.8,0.3,1.1c0,0,0,0,0.1,0c0.4,0.3,1,0.1,1.2-0.3c0.8-1.7,1.6-3.8,2.1-6.2c0.7-2.9,0.9-5.5,1-7.5
						c0.3-4.2,0.6-5.2,2.4-5.2c0.7,0,1.1,0.3,1.6,0.8c1.9,2.6,0.9,10.3-0.2,13.7c-0.7,2.2-1.5,4.1-2.3,5.7c-0.3,0.5,0.1,1.2,0.7,1.2
						c0,0,0.1,0,0.1,0c0.3-0.2,0.5-0.3,0.8-0.5c0.9-1.7,1.7-3.7,2.4-6C533,464.7,534.7,455.7,532.1,452.1z"/>
					<path fill="#FFFFFF" d="M537.3,462c0.6-6.9-0.3-11.5-2.6-14c-1.4-1.5-3.2-2.2-5.4-2.2c-6.6,0-7.3,5.7-8.5,15.9
						c-0.3,2.4-0.9,4.3-1.7,5.9c-0.1,0.3-0.1,0.7,0.1,0.9c0,0,0,0.1,0.1,0.1c0.4,0.5,1.1,0.4,1.4-0.2c0.9-1.7,1.6-3.9,1.9-6.5
						c1.3-10.7,2-14.4,6.8-14.4c1.8,0,3.1,0.5,4.1,1.7c2,2.1,2.7,6.4,2.2,12.7c-0.3,3.4-1.2,6.8-2.4,9.7c-0.3,0.7,0.5,1.4,1.2,1.1
						c0,0,0.1,0,0.1-0.1c0.2-0.1,0.3-0.3,0.4-0.5C536,469.1,537,465.6,537.3,462z"/>
					<path fill="#FFFFFF" d="M540.9,466.4c0.1-0.1,0.1-0.2,0.1-0.3c1.2-6.6,0.7-13.2-1.6-18c-1.8-3.8-4.6-6-8-6.3
						c-10.5-1.2-12.7,7.5-13.8,15.8c-0.3,2.4-0.9,4.3-1.5,5.8c-0.1,0.2-0.1,0.5,0,0.7c0,0,0,0.1,0,0.1c0.3,0.6,1.2,0.6,1.5,0
						c0.7-1.7,1.3-3.7,1.7-6.3c1.3-9.7,3.7-15.2,11.9-14.3c3.5,0.4,5.6,3.1,6.7,5.4c2,4,2.7,10.3,1.5,17
						C539.2,466.7,540.4,467.2,540.9,466.4C540.9,466.4,540.9,466.4,540.9,466.4z"/>
					<path fill="#FFFFFF" d="M541.6,443.4c-2.9-4.7-8.5-7.3-13.9-6.5c-5.7,0.9-10,5.3-11.6,11.8c-0.8,3.2-1.6,5.8-2.4,7.8
						c-0.1,0.2-0.1,0.3,0,0.5c0,0,0,0.1,0,0.1c0.2,0.8,1.3,0.9,1.6,0.1c0.9-2.1,1.7-4.8,2.5-8.1c1.4-5.9,5.1-9.7,10.2-10.5
						c4.8-0.7,9.7,1.5,12.2,5.7c1.9,3.1,3,6.7,3.6,10.3c0.2,0.9,1.5,0.9,1.7,0c0-0.1,0-0.1,0-0.2c0-0.1,0-0.2,0-0.3
						C544.7,450.4,543.5,446.6,541.6,443.4z"/>
					<path fill="#FFFFFF" d="M541.4,437c-3.2-3-9.5-5.6-15.8-4.2c-3.6,0.8-8.6,3.3-11.4,10.5c-0.6,1.5-1.1,2.8-1.6,4
						c0,0.1,0,0.2-0.1,0.3c0,0,0,0.1,0,0.1c0,0.9,1.3,1.2,1.6,0.3c0.5-1.2,1.1-2.6,1.7-4.1c2-5.1,5.6-8.4,10.2-9.4
						c5.5-1.2,11.3,1,14.2,3.8c1.6,1.5,2.8,3.1,3.8,4.8c0.5,0.8,1.7,0.3,1.5-0.6c0-0.1,0-0.1,0-0.2c0-0.1-0.1-0.2-0.1-0.3
						C544.4,440.2,543,438.6,541.4,437z"/>
					<path fill="#FFFFFF" d="M529.2,429.4c5,0,8.9,2.1,11.8,4.8c0.7,0.7,1.8-0.3,1.3-1.1c0-0.1-0.1-0.1-0.1-0.2
						c0-0.1-0.1-0.1-0.1-0.2c-3.1-2.9-7.3-5.1-12.8-5.1c-5.5,0-9.8,2.4-13,5.4c-0.1,0.1-0.1,0.1-0.1,0.2c0,0.1-0.1,0.1-0.1,0.2
						c-0.5,0.8,0.6,1.7,1.3,1C520.2,431.6,524.1,429.4,529.2,429.4z"/>
				</g>
			</g>
		</g>
		<g>
			<path fill="#FDCAA1" d="M224.2,143.9c0,0,0.4,9.7-3.2,10.9c-3.6,1.2-8.5-2-8.3-10.9C212.9,135,223.8,133.6,224.2,143.9z"/>
			<path fill="#BB6B29" d="M214.1,145.4c0.1,1.1,0.9,5,2.5,5.1c1.6,0.1,2.2-1.7,4.8-1.6s2.7,0.7,2.6,2.4s-0.2,4.9-2.9,5.5
				c-2.8,0.7-5.3-0.9-6.4-3s-1.7-6.1-1.7-6.1L214.1,145.4z"/>
			<path fill="#BB6B29" d="M213.2,148.9c0.7,0.8,0.8-5.2,1.4-6.7s4.1-0.7,8.1-0.5s4.9-3.3,3.5-4.4c-1.4-1.2-1.7,0-3.5,0
				c-1.8,0-4.6-2-7.8-0.6c-3.2,1.4-1.1,3.5-2.3,4.7C211.6,142.5,209.7,144.9,213.2,148.9z"/>
			<path fill="#E64C3C" d="M211.3,145.5c0,0,1.8,2.8,4.4,2.7c2.6-0.1,4.8-1.4,5.8-1.4s2.6,1.4,2.6,1.4s0.4-3.3,0.2-4.8
				c0,0-1.7,1.3-2.8,1.5s-1.9-0.6-5.1-1.2c-3.2-0.6-5.1,0.4-5.1,0.4S211.1,145,211.3,145.5z"/>
			<path fill="#FFFFFF" d="M216.1,146c-0.1-1,2.6-0.7,2.4,0C218.3,146.8,216.1,147.1,216.1,146z"/>
			<path fill="#FFFFFF" d="M224.3,145.4c-0.7-0.2-2,0.1-1.9,0.6c0.1,0.5,1.1,0.8,1.8,0.6C224.2,146.3,224.3,145.9,224.3,145.4z"/>
		</g>
		<path fill="#FDCAA1" d="M202,188.1c0,0,1.8-3.4,4.4-3.5c2.6-0.1,4.3,3.2,3.3,4.7c-1,1.5-4.6-1.2-5.9-0.7
			C202.5,189.1,202,189.5,202,188.1z"/>
		<path fill="#FDCAA1" d="M249.7,155.7c0,0-3.4-1.8-5.6-0.4c-2.2,1.4-1.8,5-0.2,5.7c1.6,0.7,3.2-3.5,4.6-3.9
			C249.9,156.8,250.5,156.8,249.7,155.7z"/>
	</g>
</g>
</svg>
